<svg width="98" height="105" viewBox="0 0 98 105" fill="none" xmlns="http://www.w3.org/2000/svg">
<path d="M13.8948 2.04199L25.9595 4.86756L40.3855 33.0763L36.0089 45.0602L13.8948 2.04199Z" fill="#00ADEF"/>
<path d="M36.3205 2.03714L48.0516 4.96052L83.6747 55.0163L70.8516 52.4041L36.3205 2.03714Z" fill="#00ADEF"/>
<path d="M83.6903 2.5906L75.3032 3.12741L64.6168 22.6828L69.7489 29.9996L83.6903 2.5906Z" fill="#00ADEF"/>
<path d="M60.5149 42.7092L55.3828 35.3776L50.864 43.3592C53.1834 46.3749 55.3828 47.1081 58.5009 46.223L60.5149 42.7092Z" fill="#00ADEF"/>
<path d="M38.5719 48.8811L42.4206 35.4018C51.3453 50.8164 49.9867 49.5099 63.0294 51.8403L53.9185 61.1004C48.8516 64.6379 47.3389 63.6196 38.5719 48.8811Z" fill="#00ADEF"/>
<path d="M6.33443 99.5706L0.615847 79.0423H3.90036L8.88579 97.5764H9.26703L14.2231 79.0423H17.5076L11.8184 99.5706H6.33443ZM27.7993 99.9811C26.333 99.9811 25.0524 99.6781 23.9575 99.072C22.8627 98.4464 22.0025 97.5764 21.3769 96.462C20.7708 95.3281 20.4677 94.0182 20.4677 92.5323V92.1804C20.4677 90.675 20.7708 89.3651 21.3769 88.2507C21.9829 87.1168 22.8236 86.2468 23.8989 85.6407C24.9937 85.0151 26.2548 84.7023 27.682 84.7023C29.0701 84.7023 30.2822 85.0151 31.3184 85.6407C32.3741 86.2468 33.1952 87.0972 33.7818 88.1921C34.3683 89.2869 34.6615 90.5675 34.6615 92.0338V93.1775H23.547C23.5861 94.4483 24.0064 95.4649 24.808 96.2274C25.6291 96.9703 26.6458 97.3418 27.8579 97.3418C28.9918 97.3418 29.8423 97.0876 30.4093 96.5793C30.9958 96.071 31.4455 95.4845 31.7583 94.8197L34.251 96.1101C33.9773 96.6575 33.5765 97.2342 33.0486 97.8403C32.5403 98.4464 31.8658 98.9547 31.0251 99.3653C30.1844 99.7758 29.1092 99.9811 27.7993 99.9811ZM23.5763 90.8607H31.5823C31.5041 89.7659 31.1131 88.9154 30.4093 88.3094C29.7054 87.6837 28.7866 87.3709 27.6526 87.3709C26.5187 87.3709 25.59 87.6837 24.8667 88.3094C24.1628 88.9154 23.7327 89.7659 23.5763 90.8607ZM40.0571 99.5706V85.1128H43.019V86.8137H43.4882C43.7228 86.2077 44.0943 85.7678 44.6026 85.4941C45.1305 85.2008 45.7757 85.0542 46.5381 85.0542H48.2684V87.7815H46.4208C45.4433 87.7815 44.6417 88.0552 44.0161 88.6026C43.3905 89.1305 43.0777 89.9516 43.0777 91.066V99.5706H40.0571ZM51.9259 99.5706L57.4392 92.2684L52.0432 85.1128H55.5916L59.3747 90.3035H59.8439L63.627 85.1128H67.2047L61.7794 92.2684L67.2927 99.5706H63.6856L59.8439 94.2625H59.3747L55.533 99.5706H51.9259ZM72.3008 99.5706V85.1128H75.3214V99.5706H72.3008ZM73.8258 83.148C73.2393 83.148 72.7407 82.9622 72.3302 82.5908C71.9392 82.1998 71.7436 81.7012 71.7436 81.0951C71.7436 80.4891 71.9392 80.0003 72.3302 79.6288C72.7407 79.2378 73.2393 79.0423 73.8258 79.0423C74.4319 79.0423 74.9304 79.2378 75.3214 79.6288C75.7124 80.0003 75.9079 80.4891 75.9079 81.0951C75.9079 81.7012 75.7124 82.1998 75.3214 82.5908C74.9304 82.9622 74.4319 83.148 73.8258 83.148ZM88.3381 99.9811C86.8913 99.9811 85.601 99.6879 84.467 99.1013C83.3526 98.4953 82.4728 97.635 81.8277 96.5206C81.1825 95.4063 80.8599 94.0866 80.8599 92.5616V92.1217C80.8599 90.5968 81.1825 89.2869 81.8277 88.1921C82.4728 87.0777 83.3526 86.2174 84.467 85.6114C85.601 85.0053 86.8913 84.7023 88.3381 84.7023C89.7848 84.7023 91.0752 85.0053 92.2091 85.6114C93.343 86.2174 94.2326 87.0777 94.8778 88.1921C95.5229 89.2869 95.8455 90.5968 95.8455 92.1217V92.5616C95.8455 94.0866 95.5229 95.4063 94.8778 96.5206C94.2326 97.635 93.343 98.4953 92.2091 99.1013C91.0752 99.6879 89.7848 99.9811 88.3381 99.9811ZM88.3381 97.2831C89.6675 97.2831 90.7428 96.8628 91.5639 96.0221C92.4046 95.1619 92.8249 93.9791 92.8249 92.4737V92.2097C92.8249 90.7043 92.4144 89.5313 91.5932 88.6906C90.7721 87.8304 89.6871 87.4002 88.3381 87.4002C87.0282 87.4002 85.9529 87.8304 85.1122 88.6906C84.2911 89.5313 83.8805 90.7043 83.8805 92.2097V92.4737C83.8805 93.9791 84.2911 95.1619 85.1122 96.0221C85.9529 96.8628 87.0282 97.2831 88.3381 97.2831Z" fill="#F5FCFF"/>
</svg>
