<svg width="59" height="88" viewBox="0 0 59 88" fill="none" xmlns="http://www.w3.org/2000/svg">
<path d="M0 19.7271L10.1384 22.1015L22.261 45.8061L18.5831 55.8765L0 19.7271Z" fill="#00ADEF"/>
<path d="M18.8451 19.7227L28.7031 22.1793L58.6382 64.2426L47.8626 62.0476L18.8451 19.7227Z" fill="#00ADEF"/>
<path d="M58.6511 20.1874L51.6032 20.6385L42.6231 37.0714L46.9357 43.2199L58.6511 20.1874Z" fill="#00ADEF"/>
<path d="M39.1763 53.9003L34.8637 47.7395L31.0664 54.4466C33.0154 56.9808 34.8637 57.5969 37.4839 56.8531L39.1763 53.9003Z" fill="#00ADEF"/>
<path d="M20.7369 59.0871L23.9711 47.76C31.4708 60.7134 30.3291 59.6155 41.2892 61.5738L33.6331 69.3554C29.3753 72.328 28.104 71.4723 20.7369 59.0871Z" fill="#00ADEF"/>
</svg>
