<svg width="51" height="52" viewBox="0 0 51 52" fill="none" xmlns="http://www.w3.org/2000/svg">
<path d="M25.5 3.6875C19.6046 3.75903 13.9708 6.13277 9.80177 10.3018C5.63277 14.4708 3.25903 20.1046 3.1875 26C3.25903 31.8954 5.63277 37.5292 9.80177 41.6982C13.9708 45.8672 19.6046 48.241 25.5 48.3125C31.3954 48.241 37.0292 45.8672 41.1982 41.6982C45.3672 37.5292 47.741 31.8954 47.8125 26C47.741 20.1046 45.3672 14.4708 41.1982 10.3018C37.0292 6.13277 31.3954 3.75903 25.5 3.6875ZM38.25 27.5938H27.0938V38.75H23.9062V27.5938H12.75V24.4062H23.9062V13.25H27.0938V24.4062H38.25V27.5938Z" fill="#00ADEF"/>
</svg>