<svg width="30" height="30" viewBox="0 0 30 30" fill="none" xmlns="http://www.w3.org/2000/svg">
<rect x="0.19751" y="0.337891" width="29.2863" height="29.2863" rx="4.88105" fill="#FDE3E3"/>
<path d="M14.8405 23.0604C19.5813 23.0604 23.4244 19.2172 23.4244 14.4765C23.4244 9.73572 19.5813 5.89258 14.8405 5.89258C10.0997 5.89258 6.25659 9.73572 6.25659 14.4765C6.25659 19.2172 10.0997 23.0604 14.8405 23.0604Z" stroke="#F25858" stroke-width="1.07299"/>
<path d="M21.5016 8.88085C20.7151 9.60619 19.7269 10.1942 18.6078 10.6041C17.4876 11.015 16.2611 11.2371 15.0154 11.2564C13.7855 11.2778 12.5607 11.0947 11.3908 10.7146C10.2492 10.339 9.23092 9.78109 8.40579 9.08043M21.6239 20.1891C20.8299 19.4208 19.8159 18.7974 18.655 18.3661C17.4597 17.9279 16.1973 17.701 14.9242 17.6955C13.649 17.6829 12.3813 17.8912 11.1773 18.3113C10.0056 18.7255 8.97447 19.3339 8.16115 20.0893M14.8405 5.89258V23.0604M23.4244 14.4765H6.25659" stroke="#F25858" stroke-width="1.07299"/>
</svg>
