<svg width="21" height="20" viewBox="0 0 21 20" fill="none" xmlns="http://www.w3.org/2000/svg">
<path d="M18.75 0.25H2.25C1.85218 0.25 1.47064 0.408035 1.18934 0.68934C0.908035 0.970644 0.75 1.35218 0.75 1.75V18.25C0.75 18.6478 0.908035 19.0294 1.18934 19.3107C1.47064 19.592 1.85218 19.75 2.25 19.75H18.75C19.1478 19.75 19.5294 19.592 19.8107 19.3107C20.092 19.0294 20.25 18.6478 20.25 18.25V1.75C20.25 1.35218 20.092 0.970644 19.8107 0.68934C19.5294 0.408035 19.1478 0.25 18.75 0.25ZM18.75 18.25H2.25V1.75H18.75V18.25ZM7.5 8.5V14.5C7.5 14.6989 7.42098 14.8897 7.28033 15.0303C7.13968 15.171 6.94891 15.25 6.75 15.25C6.55109 15.25 6.36032 15.171 6.21967 15.0303C6.07902 14.8897 6 14.6989 6 14.5V8.5C6 8.30109 6.07902 8.11032 6.21967 7.96967C6.36032 7.82902 6.55109 7.75 6.75 7.75C6.94891 7.75 7.13968 7.82902 7.28033 7.96967C7.42098 8.11032 7.5 8.30109 7.5 8.5ZM15.75 11.125V14.5C15.75 14.6989 15.671 14.8897 15.5303 15.0303C15.3897 15.171 15.1989 15.25 15 15.25C14.8011 15.25 14.6103 15.171 14.4697 15.0303C14.329 14.8897 14.25 14.6989 14.25 14.5V11.125C14.25 10.6277 14.0525 10.1508 13.7008 9.79918C13.3492 9.44754 12.8723 9.25 12.375 9.25C11.8777 9.25 11.4008 9.44754 11.0492 9.79918C10.6975 10.1508 10.5 10.6277 10.5 11.125V14.5C10.5 14.6989 10.421 14.8897 10.2803 15.0303C10.1397 15.171 9.94891 15.25 9.75 15.25C9.55109 15.25 9.36032 15.171 9.21967 15.0303C9.07902 14.8897 9 14.6989 9 14.5V8.5C9.00093 8.31629 9.06925 8.13931 9.19201 8.00264C9.31477 7.86596 9.48342 7.7791 9.66598 7.75852C9.84853 7.73794 10.0323 7.78508 10.1824 7.891C10.3325 7.99691 10.4385 8.15423 10.4803 8.33313C10.9877 7.98894 11.5792 7.78947 12.1914 7.75611C12.8036 7.72276 13.4133 7.85679 13.955 8.14381C14.4968 8.43083 14.9501 8.86 15.2664 9.38523C15.5826 9.91046 15.7498 10.5119 15.75 11.125ZM7.875 5.875C7.875 6.0975 7.80902 6.31501 7.6854 6.50002C7.56179 6.68502 7.38609 6.82922 7.18052 6.91436C6.97495 6.99951 6.74875 7.02179 6.53052 6.97838C6.31229 6.93498 6.11184 6.82783 5.9545 6.6705C5.79717 6.51316 5.69002 6.31271 5.64662 6.09448C5.60321 5.87625 5.62549 5.65005 5.71064 5.44448C5.79578 5.23891 5.93998 5.06321 6.12498 4.9396C6.30999 4.81598 6.5275 4.75 6.75 4.75C7.04837 4.75 7.33452 4.86853 7.5455 5.0795C7.75647 5.29048 7.875 5.57663 7.875 5.875Z" fill="white"/>
</svg>
