<svg width="21" height="21" viewBox="0 0 21 21" fill="none" xmlns="http://www.w3.org/2000/svg">
<path d="M20.0291 5.09501C20.2583 4.35551 20.3318 3.57653 20.245 2.80719C20.1582 2.03785 19.913 1.29484 19.5247 0.625012C19.4588 0.510973 19.3641 0.416279 19.2501 0.350451C19.136 0.284623 19.0067 0.249983 18.875 0.250012C18.0014 0.248184 17.1395 0.450697 16.3582 0.841373C15.5768 1.23205 14.8977 1.80006 14.375 2.50001H12.125C11.6023 1.80006 10.9232 1.23205 10.1418 0.841373C9.36047 0.450697 8.49857 0.248184 7.625 0.250012C7.49332 0.249983 7.36395 0.284623 7.2499 0.350451C7.13586 0.416279 7.04115 0.510973 6.97531 0.625012C6.58704 1.29484 6.34177 2.03785 6.25497 2.80719C6.16816 3.57653 6.24169 4.35551 6.47094 5.09501C6.00756 5.90381 5.75934 6.81793 5.75 7.75001V8.50001C5.75158 9.76902 6.21225 10.9946 7.04696 11.9504C7.88166 12.9063 9.03402 13.5278 10.2913 13.7003C9.77807 14.357 9.49952 15.1666 9.5 16V16.75H7.25C6.65326 16.75 6.08097 16.513 5.65901 16.091C5.23705 15.669 5 15.0968 5 14.5C5 14.0076 4.903 13.5199 4.71455 13.0649C4.52609 12.61 4.24987 12.1966 3.90165 11.8484C3.55343 11.5001 3.14003 11.2239 2.68506 11.0355C2.23009 10.847 1.74246 10.75 1.25 10.75C1.05109 10.75 0.860322 10.829 0.71967 10.9697C0.579018 11.1103 0.5 11.3011 0.5 11.5C0.5 11.6989 0.579018 11.8897 0.71967 12.0303C0.860322 12.171 1.05109 12.25 1.25 12.25C1.84674 12.25 2.41903 12.4871 2.84099 12.909C3.26295 13.331 3.5 13.9033 3.5 14.5C3.5 15.4946 3.89509 16.4484 4.59835 17.1517C5.30161 17.8549 6.25544 18.25 7.25 18.25H9.5V19.75C9.5 19.9489 9.57902 20.1397 9.71967 20.2803C9.86032 20.421 10.0511 20.5 10.25 20.5C10.4489 20.5 10.6397 20.421 10.7803 20.2803C10.921 20.1397 11 19.9489 11 19.75V16C11 15.4033 11.2371 14.831 11.659 14.409C12.081 13.9871 12.6533 13.75 13.25 13.75C13.8467 13.75 14.419 13.9871 14.841 14.409C15.2629 14.831 15.5 15.4033 15.5 16V19.75C15.5 19.9489 15.579 20.1397 15.7197 20.2803C15.8603 20.421 16.0511 20.5 16.25 20.5C16.4489 20.5 16.6397 20.421 16.7803 20.2803C16.921 20.1397 17 19.9489 17 19.75V16C17.0005 15.1666 16.7219 14.357 16.2087 13.7003C17.466 13.5278 18.6183 12.9063 19.453 11.9504C20.2877 10.9946 20.7484 9.76902 20.75 8.50001V7.75001C20.7407 6.81793 20.4924 5.90381 20.0291 5.09501ZM19.25 8.50001C19.25 9.49457 18.8549 10.4484 18.1516 11.1517C17.4484 11.8549 16.4946 12.25 15.5 12.25H11C10.0054 12.25 9.05161 11.8549 8.34835 11.1517C7.64509 10.4484 7.25 9.49457 7.25 8.50001V7.75001C7.2592 7.00004 7.48373 6.2685 7.89688 5.64251C7.97389 5.541 8.02377 5.42154 8.04182 5.2954C8.05986 5.16926 8.04547 5.04061 8 4.92157C7.80465 4.41776 7.71063 3.88035 7.72334 3.34013C7.73605 2.79992 7.85523 2.26752 8.07406 1.77345C8.68786 1.83948 9.27892 2.04281 9.80344 2.36836C10.328 2.69391 10.7725 3.13334 11.1041 3.65407C11.1716 3.75974 11.2646 3.84676 11.3745 3.9072C11.4844 3.96763 11.6077 3.99955 11.7331 4.00001H14.7659C14.8918 4.00002 15.0157 3.96833 15.1261 3.90787C15.2366 3.84742 15.33 3.76014 15.3978 3.65407C15.7293 3.1333 16.1738 2.69383 16.6984 2.36827C17.2229 2.04271 17.814 1.83941 18.4278 1.77345C18.6463 2.26765 18.7652 2.80011 18.7776 3.34032C18.79 3.88053 18.6956 4.41788 18.5 4.92157C18.4547 5.03947 18.4395 5.16682 18.4559 5.29206C18.4722 5.41731 18.5196 5.53648 18.5938 5.63876C19.011 6.26475 19.2388 6.9978 19.25 7.75001V8.50001Z" fill="white"/>
</svg>
