<svg width="30" height="26" viewBox="0 0 30 26" fill="none" xmlns="http://www.w3.org/2000/svg">
<rect x="0.5" y="0.674805" width="29" height="24.65" rx="2.9" fill="#FDE3F7"/>
<path fill-rule="evenodd" clip-rule="evenodd" d="M7.46259 9.79188C7.86988 10.0776 8.34783 10.2459 8.84427 10.2785C9.34072 10.3111 9.83657 10.2066 10.2777 9.97659C10.7188 9.74654 11.0883 9.39973 11.3457 8.974C11.6032 8.54828 11.7387 8.06001 11.7375 7.5625C11.7375 7.09515 11.6171 6.6357 11.3877 6.22848C11.1584 5.82127 10.828 5.48004 10.4283 5.23775C10.0287 4.99545 9.57336 4.86026 9.10625 4.84523C8.63914 4.83019 8.17605 4.93583 7.76166 5.15193C7.34727 5.36803 6.99559 5.6873 6.74055 6.07893C6.48552 6.47055 6.33574 6.92131 6.30568 7.38769C6.27562 7.85408 6.36629 8.32033 6.56894 8.74146C6.77159 9.16259 7.07937 9.52437 7.46259 9.79188ZM9.0188 8.65C9.30722 8.65 9.58383 8.53543 9.78778 8.33148C9.99172 8.12753 10.1063 7.85092 10.1063 7.5625C10.1063 7.27408 9.99172 6.99747 9.78778 6.79352C9.58383 6.58958 9.30722 6.475 9.0188 6.475C8.73038 6.475 8.45377 6.58958 8.24982 6.79352C8.04588 6.99747 7.9313 7.27408 7.9313 7.5625C7.9313 7.85092 8.04588 8.12753 8.24982 8.33148C8.45377 8.53543 8.73038 8.65 9.0188 8.65ZM20.9813 10.2813C20.6241 10.2817 20.2704 10.2117 19.9404 10.0752C19.6103 9.93869 19.3104 9.73845 19.0579 9.48591C18.8054 9.23336 18.6051 8.93348 18.4686 8.60343C18.3322 8.27338 18.2621 7.91965 18.2626 7.5625C18.2626 7.02478 18.422 6.49914 18.7207 6.05204C19.0195 5.60495 19.4441 5.25648 19.9409 5.0507C20.4377 4.84493 20.9843 4.79109 21.5117 4.89599C22.0391 5.00089 22.5235 5.25983 22.9037 5.64005C23.284 6.02028 23.5429 6.50471 23.6478 7.0321C23.7527 7.55949 23.6989 8.10614 23.4931 8.60292C23.2873 9.09971 22.9389 9.52432 22.4918 9.82306C22.0447 10.1218 21.519 10.2813 20.9813 10.2813ZM22.0688 7.5625C22.0688 7.85092 21.9542 8.12753 21.7503 8.33148C21.5463 8.53543 21.2697 8.65 20.9813 8.65C20.6929 8.65 20.4163 8.53543 20.2123 8.33148C20.0084 8.12753 19.8938 7.85092 19.8938 7.5625C19.8938 7.27408 20.0084 6.99747 20.2123 6.79352C20.4163 6.58958 20.6929 6.475 20.9813 6.475C21.2697 6.475 21.5463 6.58958 21.7503 6.79352C21.9542 6.99747 22.0688 7.27408 22.0688 7.5625ZM12.9001 13.0544C13.3074 13.3401 13.7853 13.5084 14.2818 13.541C14.7782 13.5736 15.2741 13.4691 15.7152 13.2391C16.1563 13.009 16.5258 12.6622 16.7832 12.2365C17.0407 11.8108 17.1762 11.3225 17.1751 10.825C17.175 10.3577 17.0546 9.8982 16.8252 9.49098C16.5959 9.08377 16.2655 8.74254 15.8658 8.50025C15.4662 8.25795 15.0109 8.12276 14.5437 8.10773C14.0766 8.09269 13.6135 8.19833 13.1992 8.41443C12.7848 8.63053 12.4331 8.9498 12.1781 9.34143C11.923 9.73305 11.7732 10.1838 11.7432 10.6502C11.7131 11.1166 11.8038 11.5828 12.0064 12.004C12.2091 12.4251 12.5169 12.7869 12.9001 13.0544ZM14.4563 11.9125C14.7447 11.9125 15.0213 11.7979 15.2253 11.594C15.4292 11.39 15.5438 11.1134 15.5438 10.825C15.5438 10.5366 15.4292 10.26 15.2253 10.056C15.0213 9.85208 14.7447 9.7375 14.4563 9.7375C14.1679 9.7375 13.8913 9.85208 13.6873 10.056C13.4834 10.26 13.3688 10.5366 13.3688 10.825C13.3688 11.1134 13.4834 11.39 13.6873 11.594C13.8913 11.7979 14.1679 11.9125 14.4563 11.9125ZM19.3501 18.9813C18.9929 18.9817 18.6392 18.9117 18.3091 18.7752C17.9791 18.6387 17.6792 18.4384 17.4266 18.1859C17.1741 17.9334 16.9739 17.6335 16.8374 17.3034C16.7009 16.9734 16.6309 16.6197 16.6313 16.2625C16.6313 15.7248 16.7908 15.1991 17.0895 14.752C17.3882 14.3049 17.8128 13.9565 18.3096 13.7507C18.8064 13.5449 19.3531 13.4911 19.8805 13.596C20.4078 13.7009 20.8923 13.9598 21.2725 14.3401C21.6527 14.7203 21.9117 15.2047 22.0166 15.7321C22.1215 16.2595 22.0676 16.8061 21.8618 17.3029C21.6561 17.7997 21.3076 18.2243 20.8605 18.5231C20.4134 18.8218 19.8878 18.9813 19.3501 18.9813ZM20.4376 16.2625C20.4376 16.5509 20.323 16.8275 20.119 17.0315C19.9151 17.2354 19.6385 17.35 19.3501 17.35C19.0616 17.35 18.785 17.2354 18.5811 17.0315C18.3771 16.8275 18.2626 16.5509 18.2626 16.2625C18.2626 15.9741 18.3771 15.6975 18.5811 15.4935C18.785 15.2896 19.0616 15.175 19.3501 15.175C19.6385 15.175 19.9151 15.2896 20.119 15.4935C20.323 15.6975 20.4376 15.9741 20.4376 16.2625ZM11.1938 21.1562C10.8366 21.1567 10.4829 21.0867 10.1529 20.9502C9.82282 20.8137 9.52294 20.6134 9.2704 20.3609C9.01785 20.1084 8.81761 19.8085 8.68113 19.4784C8.54465 19.1484 8.47462 18.7947 8.47505 18.4375C8.47505 17.8998 8.6345 17.3741 8.93324 16.927C9.23198 16.4799 9.65659 16.1315 10.1534 15.9257C10.6502 15.7199 11.1968 15.6661 11.7242 15.771C12.2516 15.8759 12.736 16.1348 13.1162 16.5151C13.4965 16.8953 13.7554 17.3797 13.8603 17.9071C13.9652 18.4345 13.9114 18.9811 13.7056 19.4779C13.4998 19.9747 13.1514 20.3993 12.7043 20.6981C12.2572 20.9968 11.7315 21.1562 11.1938 21.1562ZM12.2813 18.4375C12.2813 18.7259 12.1667 19.0025 11.9628 19.2065C11.7588 19.4104 11.4822 19.525 11.1938 19.525C10.9054 19.525 10.6288 19.4104 10.4248 19.2065C10.2209 19.0025 10.1063 18.7259 10.1063 18.4375C10.1063 18.1491 10.2209 17.8725 10.4248 17.6685C10.6288 17.4646 10.9054 17.35 11.1938 17.35C11.4822 17.35 11.7588 17.4646 11.9628 17.6685C12.1667 17.8725 12.2813 18.1491 12.2813 18.4375Z" fill="#F258D0"/>
</svg>
