<svg width="720" height="840" viewBox="0 0 720 840" fill="none" xmlns="http://www.w3.org/2000/svg">
<rect width="720" height="840" fill="#FF57D1"/>
<path d="M78.0625 169V164.188L83.0312 163.25V129.281L78.0625 128.344V123.5H83.0312H99.4062C102.802 123.5 105.708 124.094 108.125 125.281C110.562 126.469 112.427 128.125 113.719 130.25C115.01 132.354 115.656 134.823 115.656 137.656C115.656 140.49 115.01 142.969 113.719 145.094C112.427 147.198 110.562 148.833 108.125 150C105.708 151.167 102.802 151.75 99.4062 151.75H90.9062V163.25L95.875 164.188V169H78.0625ZM90.9062 145.656H99.4062C102.198 145.656 104.292 144.906 105.688 143.406C107.083 141.906 107.781 140.01 107.781 137.719C107.781 135.385 107.083 133.448 105.688 131.906C104.292 130.365 102.198 129.594 99.4062 129.594H90.9062V145.656ZM119.531 169V164.188L124.219 163.25V140.969L119.281 140.031V135.188H131.469L131.875 139.438L131.938 140.125C132.833 138.333 133.927 136.958 135.219 136C136.531 135.042 138.062 134.562 139.812 134.562C140.396 134.562 141.01 134.615 141.656 134.719C142.323 134.823 142.865 134.938 143.281 135.062L142.375 142.344L137.969 142.094C136.531 142.01 135.344 142.292 134.406 142.938C133.49 143.583 132.719 144.479 132.094 145.625V163.25L136.781 164.188V169H119.531ZM161.625 169.656C158.375 169.656 155.583 168.927 153.25 167.469C150.917 166.01 149.125 163.99 147.875 161.406C146.625 158.802 146 155.812 146 152.438V151.781C146 148.427 146.625 145.458 147.875 142.875C149.125 140.292 150.917 138.26 153.25 136.781C155.583 135.302 158.354 134.562 161.562 134.562C164.812 134.562 167.604 135.302 169.938 136.781C172.271 138.24 174.062 140.26 175.312 142.844C176.562 145.427 177.188 148.406 177.188 151.781V152.438C177.188 155.812 176.562 158.802 175.312 161.406C174.062 163.99 172.271 166.01 169.938 167.469C167.625 168.927 164.854 169.656 161.625 169.656ZM161.625 163.594C163.375 163.594 164.812 163.125 165.938 162.188C167.083 161.229 167.938 159.917 168.5 158.25C169.062 156.562 169.344 154.625 169.344 152.438V151.781C169.344 149.615 169.062 147.698 168.5 146.031C167.938 144.365 167.083 143.052 165.938 142.094C164.792 141.135 163.333 140.656 161.562 140.656C159.833 140.656 158.396 141.135 157.25 142.094C156.104 143.052 155.25 144.365 154.688 146.031C154.146 147.698 153.875 149.615 153.875 151.781V152.438C153.875 154.625 154.146 156.562 154.688 158.25C155.25 159.917 156.104 161.229 157.25 162.188C158.417 163.125 159.875 163.594 161.625 163.594ZM194.156 169.594C191.281 169.594 189.042 168.792 187.438 167.188C185.833 165.562 185.031 162.979 185.031 159.438V140.812H180.094V135.188H185.031V126.969H192.875V135.188H199.562V140.812H192.875V159.438C192.875 160.875 193.167 161.927 193.75 162.594C194.354 163.24 195.167 163.562 196.188 163.562C196.771 163.562 197.417 163.51 198.125 163.406C198.854 163.302 199.438 163.198 199.875 163.094L200.688 168.625C199.771 168.896 198.719 169.125 197.531 169.312C196.365 169.5 195.24 169.594 194.156 169.594ZM219.438 169.656C216.188 169.656 213.396 168.927 211.062 167.469C208.729 166.01 206.938 163.99 205.688 161.406C204.438 158.802 203.812 155.812 203.812 152.438V151.781C203.812 148.427 204.438 145.458 205.688 142.875C206.938 140.292 208.729 138.26 211.062 136.781C213.396 135.302 216.167 134.562 219.375 134.562C222.625 134.562 225.417 135.302 227.75 136.781C230.083 138.24 231.875 140.26 233.125 142.844C234.375 145.427 235 148.406 235 151.781V152.438C235 155.812 234.375 158.802 233.125 161.406C231.875 163.99 230.083 166.01 227.75 167.469C225.438 168.927 222.667 169.656 219.438 169.656ZM219.438 163.594C221.188 163.594 222.625 163.125 223.75 162.188C224.896 161.229 225.75 159.917 226.312 158.25C226.875 156.562 227.156 154.625 227.156 152.438V151.781C227.156 149.615 226.875 147.698 226.312 146.031C225.75 144.365 224.896 143.052 223.75 142.094C222.604 141.135 221.146 140.656 219.375 140.656C217.646 140.656 216.208 141.135 215.062 142.094C213.917 143.052 213.062 144.365 212.5 146.031C211.958 147.698 211.688 149.615 211.688 151.781V152.438C211.688 154.625 211.958 156.562 212.5 158.25C213.062 159.917 213.917 161.229 215.062 162.188C216.229 163.125 217.688 163.594 219.438 163.594ZM255.688 169.656C252.521 169.656 249.771 168.938 247.438 167.5C245.125 166.042 243.333 164.042 242.062 161.5C240.812 158.938 240.188 155.99 240.188 152.656V151.562C240.188 148.292 240.812 145.375 242.062 142.812C243.312 140.25 245.094 138.24 247.406 136.781C249.74 135.302 252.49 134.562 255.656 134.562C258.552 134.562 261.073 135.031 263.219 135.969C265.365 136.885 267.125 138.031 268.5 139.406L268.531 148.438H262.531L261.375 142.469C260.792 141.865 260.052 141.385 259.156 141.031C258.26 140.656 257.281 140.469 256.219 140.469C254.49 140.469 253.01 140.938 251.781 141.875C250.573 142.812 249.646 144.115 249 145.781C248.375 147.427 248.062 149.354 248.062 151.562V152.656C248.062 155.031 248.385 157.031 249.031 158.656C249.677 160.281 250.573 161.51 251.719 162.344C252.885 163.177 254.219 163.594 255.719 163.594C257.531 163.594 259 163.104 260.125 162.125C261.271 161.146 262.021 159.792 262.375 158.062H269.188L269.281 158.25C269.031 160.458 268.375 162.427 267.312 164.156C266.271 165.865 264.792 167.208 262.875 168.188C260.979 169.167 258.583 169.656 255.688 169.656ZM289.812 169.656C286.562 169.656 283.771 168.927 281.438 167.469C279.104 166.01 277.312 163.99 276.062 161.406C274.812 158.802 274.188 155.812 274.188 152.438V151.781C274.188 148.427 274.812 145.458 276.062 142.875C277.312 140.292 279.104 138.26 281.438 136.781C283.771 135.302 286.542 134.562 289.75 134.562C293 134.562 295.792 135.302 298.125 136.781C300.458 138.24 302.25 140.26 303.5 142.844C304.75 145.427 305.375 148.406 305.375 151.781V152.438C305.375 155.812 304.75 158.802 303.5 161.406C302.25 163.99 300.458 166.01 298.125 167.469C295.812 168.927 293.042 169.656 289.812 169.656ZM289.812 163.594C291.562 163.594 293 163.125 294.125 162.188C295.271 161.229 296.125 159.917 296.688 158.25C297.25 156.562 297.531 154.625 297.531 152.438V151.781C297.531 149.615 297.25 147.698 296.688 146.031C296.125 144.365 295.271 143.052 294.125 142.094C292.979 141.135 291.521 140.656 289.75 140.656C288.021 140.656 286.583 141.135 285.438 142.094C284.292 143.052 283.438 144.365 282.875 146.031C282.333 147.698 282.062 149.615 282.062 151.781V152.438C282.062 154.625 282.333 156.562 282.875 158.25C283.438 159.917 284.292 161.229 285.438 162.188C286.604 163.125 288.062 163.594 289.812 163.594ZM308.688 169V164.188L313.406 163.25V126.031L308.406 125.094V120.25H321.25V163.25L325.969 164.188V169H308.688ZM343.719 169.656C341.302 169.656 339.042 169.427 336.938 168.969C334.854 168.49 332.76 167.792 330.656 166.875L330.562 157.938H336.219L337.406 162.812C338.302 163.208 339.219 163.521 340.156 163.75C341.115 163.958 342.177 164.062 343.344 164.062C345.594 164.062 347.177 163.667 348.094 162.875C349.031 162.083 349.5 161.104 349.5 159.938C349.5 158.812 349.01 157.854 348.031 157.062C347.073 156.25 345.229 155.552 342.5 154.969C338.458 154.094 335.479 152.823 333.562 151.156C331.667 149.469 330.719 147.281 330.719 144.594C330.719 142.74 331.208 141.062 332.188 139.562C333.188 138.062 334.646 136.865 336.562 135.969C338.5 135.052 340.875 134.594 343.688 134.594C346.25 134.594 348.521 134.865 350.5 135.406C352.5 135.927 354.198 136.625 355.594 137.5L355.781 146.094H350.188L349.219 141.625C348.573 141.167 347.823 140.812 346.969 140.562C346.115 140.312 345.135 140.188 344.031 140.188C342.302 140.188 340.938 140.573 339.938 141.344C338.938 142.094 338.438 143.042 338.438 144.188C338.438 144.854 338.594 145.458 338.906 146C339.24 146.542 339.865 147.042 340.781 147.5C341.719 147.938 343.083 148.365 344.875 148.781C349.271 149.802 352.417 151.135 354.312 152.781C356.208 154.427 357.156 156.604 357.156 159.312C357.156 162.333 356.052 164.812 353.844 166.75C351.635 168.688 348.26 169.656 343.719 169.656Z" fill="#151751"/>
<path d="M83.7344 259V256.785L86.5996 256.293V236.025H80.7988L80.2891 239.576H77.6875V233.406H98.957V239.576H96.3906L95.8633 236.025H90.0625V256.293L92.9277 256.785V259H83.7344ZM100.645 259V256.785L103.51 256.293V242.705L100.645 242.213V239.98H106.604L106.902 242.406L106.938 242.74C107.477 241.768 108.139 241.006 108.924 240.455C109.721 239.904 110.629 239.629 111.648 239.629C112.012 239.629 112.381 239.664 112.756 239.734C113.143 239.793 113.418 239.852 113.582 239.91L113.125 243.127L110.717 242.986C109.803 242.928 109.035 243.139 108.414 243.619C107.793 244.088 107.312 244.721 106.973 245.518V256.293L109.838 256.785V259H100.645ZM121.844 259.369C119.863 259.369 118.357 258.889 117.326 257.928C116.295 256.955 115.779 255.59 115.779 253.832C115.779 252.625 116.107 251.576 116.764 250.686C117.432 249.783 118.393 249.086 119.646 248.594C120.9 248.09 122.4 247.838 124.146 247.838H127.539V245.975C127.539 244.826 127.188 243.936 126.484 243.303C125.793 242.67 124.814 242.354 123.549 242.354C122.752 242.354 122.061 242.453 121.475 242.652C120.889 242.84 120.355 243.104 119.875 243.443L119.506 246.098H116.834V241.738C117.689 241.047 118.686 240.525 119.822 240.174C120.959 239.811 122.219 239.629 123.602 239.629C125.91 239.629 127.721 240.18 129.033 241.281C130.346 242.383 131.002 243.959 131.002 246.01V255.168C131.002 255.414 131.002 255.654 131.002 255.889C131.014 256.123 131.031 256.357 131.055 256.592L132.9 256.785V259H127.926C127.82 258.484 127.738 258.021 127.68 257.611C127.621 257.201 127.58 256.791 127.557 256.381C126.889 257.236 126.051 257.951 125.043 258.525C124.047 259.088 122.98 259.369 121.844 259.369ZM122.354 256.469C123.502 256.469 124.551 256.193 125.5 255.643C126.449 255.092 127.129 254.43 127.539 253.656V250.211H124.023C122.43 250.211 121.234 250.592 120.438 251.354C119.641 252.115 119.242 252.965 119.242 253.902C119.242 254.734 119.5 255.373 120.016 255.818C120.531 256.252 121.311 256.469 122.354 256.469ZM144.186 259.369C142.463 259.369 140.963 258.971 139.686 258.174C138.408 257.365 137.418 256.246 136.715 254.816C136.012 253.387 135.66 251.734 135.66 249.859V249.121C135.66 247.316 136 245.699 136.68 244.27C137.359 242.84 138.338 241.709 139.615 240.877C140.893 240.045 142.416 239.629 144.186 239.629C145.721 239.629 147.062 239.881 148.211 240.385C149.371 240.889 150.344 241.58 151.129 242.459L151.217 247.029H148.51L147.912 243.707C147.514 243.297 147.016 242.969 146.418 242.723C145.82 242.477 145.117 242.354 144.309 242.354C143.277 242.354 142.369 242.658 141.584 243.268C140.811 243.877 140.207 244.691 139.773 245.711C139.34 246.73 139.123 247.867 139.123 249.121V249.859C139.123 251.242 139.322 252.443 139.721 253.463C140.131 254.482 140.711 255.273 141.461 255.836C142.223 256.387 143.125 256.662 144.168 256.662C145.34 256.662 146.312 256.34 147.086 255.695C147.859 255.051 148.334 254.166 148.51 253.041H151.621L151.656 253.146C151.598 254.236 151.275 255.256 150.689 256.205C150.104 257.154 149.266 257.922 148.176 258.508C147.098 259.082 145.768 259.369 144.186 259.369ZM154.188 259V256.785L157.053 256.293V234.303L154.188 233.811V231.578H160.516V256.293L163.381 256.785V259H154.188ZM166.404 259V256.785L168.338 256.557L168.285 256.486L162.783 249.385L164.576 246.625L172.258 256.363L175 256.785V259H166.404ZM160.27 253.498L158.986 250.773L167.248 242.547L167.336 242.441L165.297 242.213V239.98H173.488V242.213L171.045 242.67L160.27 253.498ZM190.1 266.682C189.83 266.682 189.479 266.646 189.045 266.576C188.611 266.518 188.277 266.459 188.043 266.4L188.395 263.676C188.594 263.699 188.869 263.717 189.221 263.729C189.572 263.752 189.812 263.764 189.941 263.764C190.68 263.764 191.277 263.482 191.734 262.92C192.203 262.357 192.637 261.59 193.035 260.617L193.861 258.613L187.129 242.494L185.09 242.213V239.98H193.07V242.213L190.768 242.564L194.477 252.074L195.373 254.553H195.479L199.873 242.564L197.447 242.213V239.98H205.27V242.213L203.301 242.494L195.812 261.918C195.461 262.832 195.033 263.646 194.529 264.361C194.037 265.088 193.428 265.656 192.701 266.066C191.986 266.477 191.119 266.682 190.1 266.682ZM215.061 259.369C213.303 259.369 211.785 258.959 210.508 258.139C209.242 257.307 208.264 256.164 207.572 254.711C206.881 253.246 206.535 251.576 206.535 249.701V249.314C206.535 247.439 206.881 245.775 207.572 244.322C208.264 242.857 209.242 241.709 210.508 240.877C211.785 240.045 213.291 239.629 215.025 239.629C216.783 239.629 218.295 240.045 219.561 240.877C220.838 241.709 221.822 242.852 222.514 244.305C223.205 245.758 223.551 247.428 223.551 249.314V249.701C223.551 251.588 223.205 253.264 222.514 254.729C221.822 256.182 220.844 257.318 219.578 258.139C218.312 258.959 216.807 259.369 215.061 259.369ZM215.061 256.662C216.162 256.662 217.082 256.363 217.82 255.766C218.57 255.156 219.133 254.33 219.508 253.287C219.895 252.232 220.088 251.037 220.088 249.701V249.314C220.088 247.979 219.895 246.789 219.508 245.746C219.133 244.691 218.57 243.865 217.82 243.268C217.07 242.658 216.139 242.354 215.025 242.354C213.924 242.354 212.998 242.658 212.248 243.268C211.498 243.865 210.936 244.691 210.561 245.746C210.186 246.789 209.998 247.979 209.998 249.314V249.701C209.998 251.037 210.186 252.232 210.561 253.287C210.936 254.33 211.498 255.156 212.248 255.766C213.01 256.363 213.947 256.662 215.061 256.662ZM234.59 259.369C232.527 259.369 230.916 258.707 229.756 257.383C228.596 256.059 228.016 253.996 228.016 251.195V242.705L225.836 242.213V239.98H228.016H231.479V251.23C231.479 253.258 231.777 254.652 232.375 255.414C232.973 256.176 233.904 256.557 235.17 256.557C236.4 256.557 237.414 256.311 238.211 255.818C239.02 255.314 239.629 254.605 240.039 253.691V242.705L237.49 242.213V239.98H240.039H243.502V256.293L245.682 256.785V259H240.391L240.162 256.188C239.564 257.207 238.791 257.992 237.842 258.543C236.904 259.094 235.82 259.369 234.59 259.369ZM248.09 259V256.785L250.955 256.293V242.705L248.09 242.213V239.98H254.049L254.348 242.406L254.383 242.74C254.922 241.768 255.584 241.006 256.369 240.455C257.166 239.904 258.074 239.629 259.094 239.629C259.457 239.629 259.826 239.664 260.201 239.734C260.588 239.793 260.863 239.852 261.027 239.91L260.57 243.127L258.162 242.986C257.248 242.928 256.48 243.139 255.859 243.619C255.238 244.088 254.758 244.721 254.418 245.518V256.293L257.283 256.785V259H248.09ZM280.697 259.369C278.975 259.369 277.475 258.971 276.197 258.174C274.92 257.365 273.93 256.246 273.227 254.816C272.523 253.387 272.172 251.734 272.172 249.859V249.121C272.172 247.316 272.512 245.699 273.191 244.27C273.871 242.84 274.85 241.709 276.127 240.877C277.404 240.045 278.928 239.629 280.697 239.629C282.232 239.629 283.574 239.881 284.723 240.385C285.883 240.889 286.855 241.58 287.641 242.459L287.729 247.029H285.021L284.424 243.707C284.025 243.297 283.527 242.969 282.93 242.723C282.332 242.477 281.629 242.354 280.82 242.354C279.789 242.354 278.881 242.658 278.096 243.268C277.322 243.877 276.719 244.691 276.285 245.711C275.852 246.73 275.635 247.867 275.635 249.121V249.859C275.635 251.242 275.834 252.443 276.232 253.463C276.643 254.482 277.223 255.273 277.973 255.836C278.734 256.387 279.637 256.662 280.68 256.662C281.852 256.662 282.824 256.34 283.598 255.695C284.371 255.051 284.846 254.166 285.021 253.041H288.133L288.168 253.146C288.109 254.236 287.787 255.256 287.201 256.205C286.615 257.154 285.777 257.922 284.688 258.508C283.609 259.082 282.279 259.369 280.697 259.369ZM297.379 259.369C295.398 259.369 293.893 258.889 292.861 257.928C291.83 256.955 291.314 255.59 291.314 253.832C291.314 252.625 291.643 251.576 292.299 250.686C292.967 249.783 293.928 249.086 295.182 248.594C296.436 248.09 297.936 247.838 299.682 247.838H303.074V245.975C303.074 244.826 302.723 243.936 302.02 243.303C301.328 242.67 300.35 242.354 299.084 242.354C298.287 242.354 297.596 242.453 297.01 242.652C296.424 242.84 295.891 243.104 295.41 243.443L295.041 246.098H292.369V241.738C293.225 241.047 294.221 240.525 295.357 240.174C296.494 239.811 297.754 239.629 299.137 239.629C301.445 239.629 303.256 240.18 304.568 241.281C305.881 242.383 306.537 243.959 306.537 246.01V255.168C306.537 255.414 306.537 255.654 306.537 255.889C306.549 256.123 306.566 256.357 306.59 256.592L308.436 256.785V259H303.461C303.355 258.484 303.273 258.021 303.215 257.611C303.156 257.201 303.115 256.791 303.092 256.381C302.424 257.236 301.586 257.951 300.578 258.525C299.582 259.088 298.516 259.369 297.379 259.369ZM297.889 256.469C299.037 256.469 300.086 256.193 301.035 255.643C301.984 255.092 302.664 254.43 303.074 253.656V250.211H299.559C297.965 250.211 296.77 250.592 295.973 251.354C295.176 252.115 294.777 252.965 294.777 253.902C294.777 254.734 295.035 255.373 295.551 255.818C296.066 256.252 296.846 256.469 297.889 256.469ZM311.125 259V256.785L313.99 256.293V242.705L311.125 242.213V239.98H317.102L317.33 242.459C317.939 241.557 318.725 240.859 319.686 240.367C320.646 239.875 321.76 239.629 323.025 239.629C324.291 239.629 325.375 239.922 326.277 240.508C327.191 241.094 327.877 241.973 328.334 243.145C328.932 242.066 329.723 241.211 330.707 240.578C331.691 239.945 332.84 239.629 334.152 239.629C336.098 239.629 337.633 240.297 338.758 241.633C339.883 242.957 340.445 244.955 340.445 247.627V256.293L343.311 256.785V259H334.1V256.785L336.965 256.293V247.592C336.965 245.717 336.643 244.393 335.998 243.619C335.354 242.834 334.398 242.441 333.133 242.441C331.926 242.441 330.953 242.869 330.215 243.725C329.488 244.568 329.066 245.635 328.949 246.924V256.293L331.814 256.785V259H322.621V256.785L325.486 256.293V247.592C325.486 245.811 325.152 244.51 324.484 243.689C323.828 242.857 322.873 242.441 321.619 242.441C320.564 242.441 319.697 242.658 319.018 243.092C318.338 243.525 317.816 244.135 317.453 244.92V256.293L320.318 256.785V259H311.125ZM345.367 266.312V264.08L348.057 263.588V242.705L345.191 242.213V239.98H351.027L351.344 242.301C351.977 241.434 352.744 240.771 353.646 240.314C354.561 239.857 355.615 239.629 356.811 239.629C358.381 239.629 359.723 240.057 360.836 240.912C361.949 241.756 362.799 242.945 363.385 244.48C363.971 246.004 364.264 247.791 364.264 249.842V250.211C364.264 252.039 363.965 253.639 363.367 255.01C362.781 256.381 361.938 257.453 360.836 258.227C359.734 258.988 358.41 259.369 356.863 259.369C355.691 259.369 354.66 259.176 353.77 258.789C352.891 258.391 352.141 257.805 351.52 257.031V263.588L354.543 264.08V266.312H345.367ZM355.791 256.662C357.432 256.662 358.674 256.064 359.518 254.869C360.361 253.674 360.783 252.121 360.783 250.211V249.842C360.783 248.389 360.596 247.111 360.221 246.01C359.846 244.896 359.283 244.023 358.533 243.391C357.795 242.758 356.869 242.441 355.756 242.441C354.771 242.441 353.928 242.664 353.225 243.109C352.521 243.555 351.953 244.164 351.52 244.938V254.201C351.953 254.986 352.516 255.596 353.207 256.029C353.91 256.451 354.771 256.662 355.791 256.662ZM373.105 259.369C371.125 259.369 369.619 258.889 368.588 257.928C367.557 256.955 367.041 255.59 367.041 253.832C367.041 252.625 367.369 251.576 368.025 250.686C368.693 249.783 369.654 249.086 370.908 248.594C372.162 248.09 373.662 247.838 375.408 247.838H378.801V245.975C378.801 244.826 378.449 243.936 377.746 243.303C377.055 242.67 376.076 242.354 374.811 242.354C374.014 242.354 373.322 242.453 372.736 242.652C372.15 242.84 371.617 243.104 371.137 243.443L370.768 246.098H368.096V241.738C368.951 241.047 369.947 240.525 371.084 240.174C372.221 239.811 373.48 239.629 374.863 239.629C377.172 239.629 378.982 240.18 380.295 241.281C381.607 242.383 382.264 243.959 382.264 246.01V255.168C382.264 255.414 382.264 255.654 382.264 255.889C382.275 256.123 382.293 256.357 382.316 256.592L384.162 256.785V259H379.188C379.082 258.484 379 258.021 378.941 257.611C378.883 257.201 378.842 256.791 378.818 256.381C378.15 257.236 377.312 257.951 376.305 258.525C375.309 259.088 374.242 259.369 373.105 259.369ZM373.615 256.469C374.764 256.469 375.812 256.193 376.762 255.643C377.711 255.092 378.391 254.43 378.801 253.656V250.211H375.285C373.691 250.211 372.496 250.592 371.699 251.354C370.902 252.115 370.504 252.965 370.504 253.902C370.504 254.734 370.762 255.373 371.277 255.818C371.793 256.252 372.572 256.469 373.615 256.469ZM386.729 259V256.785L389.594 256.293V242.705L386.729 242.213V239.98H393.057V256.293L395.922 256.785V259H386.729ZM389.418 235.287V231.578H393.057V235.287H389.418ZM406.662 266.682C405.748 266.682 404.758 266.553 403.691 266.295C402.625 266.049 401.688 265.709 400.879 265.275L401.775 262.586C402.42 262.926 403.182 263.207 404.061 263.43C404.939 263.652 405.795 263.764 406.627 263.764C408.174 263.764 409.305 263.33 410.02 262.463C410.746 261.596 411.109 260.359 411.109 258.754V256.943C410.488 257.74 409.744 258.344 408.877 258.754C408.01 259.164 407.014 259.369 405.889 259.369C404.342 259.369 403.006 258.988 401.881 258.227C400.756 257.453 399.889 256.381 399.279 255.01C398.682 253.627 398.383 252.027 398.383 250.211V249.842C398.383 247.803 398.682 246.016 399.279 244.48C399.889 242.945 400.756 241.756 401.881 240.912C403.006 240.057 404.354 239.629 405.924 239.629C407.119 239.629 408.168 239.863 409.07 240.332C409.973 240.801 410.729 241.48 411.338 242.371L411.654 239.98H414.572V258.754C414.572 260.395 414.262 261.807 413.641 262.99C413.031 264.174 412.135 265.082 410.951 265.715C409.779 266.359 408.35 266.682 406.662 266.682ZM406.75 256.557C407.793 256.557 408.666 256.322 409.369 255.854C410.072 255.373 410.652 254.699 411.109 253.832V245.078C410.664 244.27 410.084 243.631 409.369 243.162C408.654 242.682 407.793 242.441 406.785 242.441C405.684 242.441 404.764 242.758 404.025 243.391C403.299 244.023 402.754 244.896 402.391 246.01C402.027 247.111 401.846 248.389 401.846 249.842V250.211C401.846 252.121 402.25 253.656 403.059 254.816C403.867 255.977 405.098 256.557 406.75 256.557ZM414.045 242.811L412.691 239.98H416.928V242.195L414.045 242.811ZM418.668 259V256.785L421.533 256.293V242.705L418.668 242.213V239.98H424.627L424.873 242.811C425.506 241.803 426.297 241.023 427.246 240.473C428.207 239.91 429.297 239.629 430.516 239.629C432.566 239.629 434.154 240.232 435.279 241.439C436.404 242.635 436.967 244.486 436.967 246.994V256.293L439.832 256.785V259H430.639V256.785L433.504 256.293V247.064C433.504 245.389 433.17 244.199 432.502 243.496C431.846 242.793 430.838 242.441 429.479 242.441C428.482 242.441 427.598 242.682 426.824 243.162C426.062 243.643 425.453 244.299 424.996 245.131V256.293L427.861 256.785V259H418.668ZM449.992 259.369C448.715 259.369 447.52 259.24 446.406 258.982C445.293 258.725 444.109 258.326 442.855 257.787L442.82 253.27H445.439L446.09 255.994C446.746 256.264 447.379 256.463 447.988 256.592C448.609 256.709 449.277 256.768 449.992 256.768C451.398 256.768 452.406 256.498 453.016 255.959C453.625 255.42 453.93 254.752 453.93 253.955C453.93 253.205 453.619 252.572 452.998 252.057C452.389 251.529 451.275 251.084 449.658 250.721C447.361 250.193 445.668 249.49 444.578 248.611C443.5 247.721 442.961 246.537 442.961 245.061C442.961 244.029 443.26 243.109 443.857 242.301C444.455 241.48 445.287 240.83 446.354 240.35C447.42 239.869 448.662 239.629 450.08 239.629C451.521 239.629 452.752 239.793 453.771 240.121C454.803 240.449 455.699 240.889 456.461 241.439L456.637 245.781H454.035L453.473 243.25C453.062 242.945 452.576 242.711 452.014 242.547C451.451 242.383 450.807 242.301 450.08 242.301C449.002 242.301 448.123 242.553 447.443 243.057C446.775 243.561 446.441 244.193 446.441 244.955C446.441 245.4 446.535 245.787 446.723 246.115C446.922 246.443 447.297 246.742 447.848 247.012C448.398 247.27 449.207 247.527 450.273 247.785C452.922 248.406 454.768 249.197 455.811 250.158C456.865 251.119 457.393 252.303 457.393 253.709C457.393 255.314 456.795 256.662 455.6 257.752C454.416 258.83 452.547 259.369 449.992 259.369ZM475.375 259.369C473.395 259.369 471.889 258.889 470.857 257.928C469.826 256.955 469.311 255.59 469.311 253.832C469.311 252.625 469.639 251.576 470.295 250.686C470.963 249.783 471.924 249.086 473.178 248.594C474.432 248.09 475.932 247.838 477.678 247.838H481.07V245.975C481.07 244.826 480.719 243.936 480.016 243.303C479.324 242.67 478.346 242.354 477.08 242.354C476.283 242.354 475.592 242.453 475.006 242.652C474.42 242.84 473.887 243.104 473.406 243.443L473.037 246.098H470.365V241.738C471.221 241.047 472.217 240.525 473.354 240.174C474.49 239.811 475.75 239.629 477.133 239.629C479.441 239.629 481.252 240.18 482.564 241.281C483.877 242.383 484.533 243.959 484.533 246.01V255.168C484.533 255.414 484.533 255.654 484.533 255.889C484.545 256.123 484.562 256.357 484.586 256.592L486.432 256.785V259H481.457C481.352 258.484 481.27 258.021 481.211 257.611C481.152 257.201 481.111 256.791 481.088 256.381C480.42 257.236 479.582 257.951 478.574 258.525C477.578 259.088 476.512 259.369 475.375 259.369ZM475.885 256.469C477.033 256.469 478.082 256.193 479.031 255.643C479.98 255.092 480.66 254.43 481.07 253.656V250.211H477.555C475.961 250.211 474.766 250.592 473.969 251.354C473.172 252.115 472.773 252.965 472.773 253.902C472.773 254.734 473.031 255.373 473.547 255.818C474.062 256.252 474.842 256.469 475.885 256.469ZM489.121 259V256.785L491.986 256.293V242.705L489.121 242.213V239.98H495.08L495.326 242.811C495.959 241.803 496.75 241.023 497.699 240.473C498.66 239.91 499.75 239.629 500.969 239.629C503.02 239.629 504.607 240.232 505.732 241.439C506.857 242.635 507.42 244.486 507.42 246.994V256.293L510.285 256.785V259H501.092V256.785L503.957 256.293V247.064C503.957 245.389 503.623 244.199 502.955 243.496C502.299 242.793 501.291 242.441 499.932 242.441C498.936 242.441 498.051 242.682 497.277 243.162C496.516 243.643 495.906 244.299 495.449 245.131V256.293L498.314 256.785V259H489.121ZM520.041 259.369C518.494 259.369 517.164 258.988 516.051 258.227C514.949 257.453 514.105 256.381 513.52 255.01C512.934 253.639 512.641 252.039 512.641 250.211V249.842C512.641 247.803 512.934 246.016 513.52 244.48C514.105 242.945 514.955 241.756 516.068 240.912C517.182 240.057 518.518 239.629 520.076 239.629C521.201 239.629 522.191 239.84 523.047 240.262C523.914 240.672 524.652 241.27 525.262 242.055V234.303L522.396 233.811V231.578H525.262H528.725V256.293L531.59 256.785V259H525.719L525.438 256.732C524.816 257.6 524.055 258.256 523.152 258.701C522.262 259.146 521.225 259.369 520.041 259.369ZM520.92 256.557C521.951 256.557 522.818 256.322 523.521 255.854C524.225 255.385 524.805 254.723 525.262 253.867V245.043C524.816 244.246 524.236 243.613 523.521 243.145C522.807 242.676 521.951 242.441 520.955 242.441C519.854 242.441 518.945 242.758 518.23 243.391C517.516 244.012 516.982 244.879 516.631 245.992C516.279 247.094 516.104 248.377 516.104 249.842V250.211C516.104 252.121 516.496 253.656 517.281 254.816C518.066 255.977 519.279 256.557 520.92 256.557ZM542.945 259V256.785L545.811 256.293V242.705L542.945 242.213V239.98H548.922L549.15 242.459C549.76 241.557 550.545 240.859 551.506 240.367C552.467 239.875 553.58 239.629 554.846 239.629C556.111 239.629 557.195 239.922 558.098 240.508C559.012 241.094 559.697 241.973 560.154 243.145C560.752 242.066 561.543 241.211 562.527 240.578C563.512 239.945 564.66 239.629 565.973 239.629C567.918 239.629 569.453 240.297 570.578 241.633C571.703 242.957 572.266 244.955 572.266 247.627V256.293L575.131 256.785V259H565.92V256.785L568.785 256.293V247.592C568.785 245.717 568.463 244.393 567.818 243.619C567.174 242.834 566.219 242.441 564.953 242.441C563.746 242.441 562.773 242.869 562.035 243.725C561.309 244.568 560.887 245.635 560.77 246.924V256.293L563.635 256.785V259H554.441V256.785L557.307 256.293V247.592C557.307 245.811 556.973 244.51 556.305 243.689C555.648 242.857 554.693 242.441 553.439 242.441C552.385 242.441 551.518 242.658 550.838 243.092C550.158 243.525 549.637 244.135 549.273 244.92V256.293L552.139 256.785V259H542.945ZM583.867 259.369C581.887 259.369 580.381 258.889 579.35 257.928C578.318 256.955 577.803 255.59 577.803 253.832C577.803 252.625 578.131 251.576 578.787 250.686C579.455 249.783 580.416 249.086 581.67 248.594C582.924 248.09 584.424 247.838 586.17 247.838H589.562V245.975C589.562 244.826 589.211 243.936 588.508 243.303C587.816 242.67 586.838 242.354 585.572 242.354C584.775 242.354 584.084 242.453 583.498 242.652C582.912 242.84 582.379 243.104 581.898 243.443L581.529 246.098H578.857V241.738C579.713 241.047 580.709 240.525 581.846 240.174C582.982 239.811 584.242 239.629 585.625 239.629C587.934 239.629 589.744 240.18 591.057 241.281C592.369 242.383 593.025 243.959 593.025 246.01V255.168C593.025 255.414 593.025 255.654 593.025 255.889C593.037 256.123 593.055 256.357 593.078 256.592L594.924 256.785V259H589.949C589.844 258.484 589.762 258.021 589.703 257.611C589.645 257.201 589.604 256.791 589.58 256.381C588.912 257.236 588.074 257.951 587.066 258.525C586.07 259.088 585.004 259.369 583.867 259.369ZM584.377 256.469C585.525 256.469 586.574 256.193 587.523 255.643C588.473 255.092 589.152 254.43 589.562 253.656V250.211H586.047C584.453 250.211 583.258 250.592 582.461 251.354C581.664 252.115 581.266 252.965 581.266 253.902C581.266 254.734 581.523 255.373 582.039 255.818C582.555 256.252 583.334 256.469 584.377 256.469ZM597.438 259V256.785L600.303 256.293V234.303L597.438 233.811V231.578H603.766V256.293L606.631 256.785V259H597.438ZM609.654 259V256.785L611.588 256.557L611.535 256.486L606.033 249.385L607.826 246.625L615.508 256.363L618.25 256.785V259H609.654ZM603.52 253.498L602.236 250.773L610.498 242.547L610.586 242.441L608.547 242.213V239.98H616.738V242.213L614.295 242.67L603.52 253.498ZM627.865 259.369C626.107 259.369 624.578 258.971 623.277 258.174C621.977 257.365 620.969 256.246 620.254 254.816C619.551 253.387 619.199 251.734 619.199 249.859V249.086C619.199 247.281 619.568 245.67 620.307 244.252C621.057 242.822 622.047 241.697 623.277 240.877C624.52 240.045 625.873 239.629 627.338 239.629C629.049 239.629 630.479 239.98 631.627 240.684C632.787 241.387 633.66 242.377 634.246 243.654C634.832 244.92 635.125 246.414 635.125 248.137V250.299H622.785L622.732 250.387C622.756 251.605 622.967 252.689 623.365 253.639C623.775 254.576 624.361 255.314 625.123 255.854C625.885 256.393 626.799 256.662 627.865 256.662C629.037 256.662 630.062 256.498 630.941 256.17C631.832 255.83 632.6 255.367 633.244 254.781L634.598 257.031C633.918 257.688 633.016 258.244 631.891 258.701C630.777 259.146 629.436 259.369 627.865 259.369ZM622.891 247.592H631.662V247.135C631.662 246.221 631.498 245.406 631.17 244.691C630.854 243.965 630.373 243.396 629.729 242.986C629.096 242.564 628.299 242.354 627.338 242.354C626.564 242.354 625.861 242.582 625.229 243.039C624.596 243.484 624.074 244.094 623.664 244.867C623.254 245.641 622.984 246.52 622.855 247.504L622.891 247.592ZM77.1777 307V304.785L80.043 304.293V290.705L77.1777 290.213V287.98H83.5059V304.293L86.3711 304.785V307H77.1777ZM79.8672 283.287V279.578H83.5059V283.287H79.8672ZM88.7617 307V304.785L91.627 304.293V290.705L88.7617 290.213V287.98H94.7207L94.9668 290.811C95.5996 289.803 96.3906 289.023 97.3398 288.473C98.3008 287.91 99.3906 287.629 100.609 287.629C102.66 287.629 104.248 288.232 105.373 289.439C106.498 290.635 107.061 292.486 107.061 294.994V304.293L109.926 304.785V307H100.732V304.785L103.598 304.293V295.064C103.598 293.389 103.264 292.199 102.596 291.496C101.939 290.793 100.932 290.441 99.5723 290.441C98.5762 290.441 97.6914 290.682 96.918 291.162C96.1562 291.643 95.5469 292.299 95.0898 293.131V304.293L97.9551 304.785V307H88.7617ZM112.316 307V304.785L115.182 304.293V290.547H112.211V287.98H115.182V285.572C115.182 283.545 115.709 281.98 116.764 280.879C117.83 279.766 119.312 279.209 121.211 279.209C121.609 279.209 122.037 279.244 122.494 279.314C122.963 279.373 123.443 279.461 123.936 279.578L123.514 282.215C123.303 282.168 123.016 282.127 122.652 282.092C122.301 282.057 121.967 282.039 121.65 282.039C120.631 282.039 119.875 282.344 119.383 282.953C118.891 283.551 118.645 284.424 118.645 285.572V287.98H122.793V290.547H118.645V304.293L121.914 304.785V307H112.316ZM133.568 307.369C131.811 307.369 130.293 306.959 129.016 306.139C127.75 305.307 126.771 304.164 126.08 302.711C125.389 301.246 125.043 299.576 125.043 297.701V297.314C125.043 295.439 125.389 293.775 126.08 292.322C126.771 290.857 127.75 289.709 129.016 288.877C130.293 288.045 131.799 287.629 133.533 287.629C135.291 287.629 136.803 288.045 138.068 288.877C139.346 289.709 140.33 290.852 141.021 292.305C141.713 293.758 142.059 295.428 142.059 297.314V297.701C142.059 299.588 141.713 301.264 141.021 302.729C140.33 304.182 139.352 305.318 138.086 306.139C136.82 306.959 135.314 307.369 133.568 307.369ZM133.568 304.662C134.67 304.662 135.59 304.363 136.328 303.766C137.078 303.156 137.641 302.33 138.016 301.287C138.402 300.232 138.596 299.037 138.596 297.701V297.314C138.596 295.979 138.402 294.789 138.016 293.746C137.641 292.691 137.078 291.865 136.328 291.268C135.578 290.658 134.646 290.354 133.533 290.354C132.432 290.354 131.506 290.658 130.756 291.268C130.006 291.865 129.443 292.691 129.068 293.746C128.693 294.789 128.506 295.979 128.506 297.314V297.701C128.506 299.037 128.693 300.232 129.068 301.287C129.443 302.33 130.006 303.156 130.756 303.766C131.518 304.363 132.455 304.662 133.568 304.662ZM144.695 307V304.785L147.561 304.293V290.705L144.695 290.213V287.98H150.654L150.953 290.406L150.988 290.74C151.527 289.768 152.189 289.006 152.975 288.455C153.771 287.904 154.68 287.629 155.699 287.629C156.062 287.629 156.432 287.664 156.807 287.734C157.193 287.793 157.469 287.852 157.633 287.91L157.176 291.127L154.768 290.986C153.854 290.928 153.086 291.139 152.465 291.619C151.844 292.088 151.363 292.721 151.023 293.518V304.293L153.889 304.785V307H144.695ZM159.742 307V304.785L162.607 304.293V290.705L159.742 290.213V287.98H165.719L165.947 290.459C166.557 289.557 167.342 288.859 168.303 288.367C169.264 287.875 170.377 287.629 171.643 287.629C172.908 287.629 173.992 287.922 174.895 288.508C175.809 289.094 176.494 289.973 176.951 291.145C177.549 290.066 178.34 289.211 179.324 288.578C180.309 287.945 181.457 287.629 182.77 287.629C184.715 287.629 186.25 288.297 187.375 289.633C188.5 290.957 189.062 292.955 189.062 295.627V304.293L191.928 304.785V307H182.717V304.785L185.582 304.293V295.592C185.582 293.717 185.26 292.393 184.615 291.619C183.971 290.834 183.016 290.441 181.75 290.441C180.543 290.441 179.57 290.869 178.832 291.725C178.105 292.568 177.684 293.635 177.566 294.924V304.293L180.432 304.785V307H171.238V304.785L174.104 304.293V295.592C174.104 293.811 173.77 292.51 173.102 291.689C172.445 290.857 171.49 290.441 170.236 290.441C169.182 290.441 168.314 290.658 167.635 291.092C166.955 291.525 166.434 292.135 166.07 292.92V304.293L168.936 304.785V307H159.742ZM202.896 307.369C201.139 307.369 199.609 306.971 198.309 306.174C197.008 305.365 196 304.246 195.285 302.816C194.582 301.387 194.23 299.734 194.23 297.859V297.086C194.23 295.281 194.6 293.67 195.338 292.252C196.088 290.822 197.078 289.697 198.309 288.877C199.551 288.045 200.904 287.629 202.369 287.629C204.08 287.629 205.51 287.98 206.658 288.684C207.818 289.387 208.691 290.377 209.277 291.654C209.863 292.92 210.156 294.414 210.156 296.137V298.299H197.816L197.764 298.387C197.787 299.605 197.998 300.689 198.396 301.639C198.807 302.576 199.393 303.314 200.154 303.854C200.916 304.393 201.83 304.662 202.896 304.662C204.068 304.662 205.094 304.498 205.973 304.17C206.863 303.83 207.631 303.367 208.275 302.781L209.629 305.031C208.949 305.688 208.047 306.244 206.922 306.701C205.809 307.146 204.467 307.369 202.896 307.369ZM197.922 295.592H206.693V295.135C206.693 294.221 206.529 293.406 206.201 292.691C205.885 291.965 205.404 291.396 204.76 290.986C204.127 290.564 203.33 290.354 202.369 290.354C201.596 290.354 200.893 290.582 200.26 291.039C199.627 291.484 199.105 292.094 198.695 292.867C198.285 293.641 198.016 294.52 197.887 295.504L197.922 295.592ZM221.037 307.369C219.49 307.369 218.16 306.988 217.047 306.227C215.945 305.453 215.102 304.381 214.516 303.01C213.93 301.639 213.637 300.039 213.637 298.211V297.842C213.637 295.803 213.93 294.016 214.516 292.48C215.102 290.945 215.951 289.756 217.064 288.912C218.178 288.057 219.514 287.629 221.072 287.629C222.197 287.629 223.188 287.84 224.043 288.262C224.91 288.672 225.648 289.27 226.258 290.055V282.303L223.393 281.811V279.578H226.258H229.721V304.293L232.586 304.785V307H226.715L226.434 304.732C225.812 305.6 225.051 306.256 224.148 306.701C223.258 307.146 222.221 307.369 221.037 307.369ZM221.916 304.557C222.947 304.557 223.814 304.322 224.518 303.854C225.221 303.385 225.801 302.723 226.258 301.867V293.043C225.812 292.246 225.232 291.613 224.518 291.145C223.803 290.676 222.947 290.441 221.951 290.441C220.85 290.441 219.941 290.758 219.227 291.391C218.512 292.012 217.979 292.879 217.627 293.992C217.275 295.094 217.1 296.377 217.1 297.842V298.211C217.1 300.121 217.492 301.656 218.277 302.816C219.062 303.977 220.275 304.557 221.916 304.557ZM251.412 307.369C249.865 307.369 248.535 306.988 247.422 306.227C246.32 305.453 245.477 304.381 244.891 303.01C244.305 301.639 244.012 300.039 244.012 298.211V297.842C244.012 295.803 244.305 294.016 244.891 292.48C245.477 290.945 246.326 289.756 247.439 288.912C248.553 288.057 249.889 287.629 251.447 287.629C252.572 287.629 253.562 287.84 254.418 288.262C255.285 288.672 256.023 289.27 256.633 290.055V282.303L253.768 281.811V279.578H256.633H260.096V304.293L262.961 304.785V307H257.09L256.809 304.732C256.188 305.6 255.426 306.256 254.523 306.701C253.633 307.146 252.596 307.369 251.412 307.369ZM252.291 304.557C253.322 304.557 254.189 304.322 254.893 303.854C255.596 303.385 256.176 302.723 256.633 301.867V293.043C256.188 292.246 255.607 291.613 254.893 291.145C254.178 290.676 253.322 290.441 252.326 290.441C251.225 290.441 250.316 290.758 249.602 291.391C248.887 292.012 248.354 292.879 248.002 293.992C247.65 295.094 247.475 296.377 247.475 297.842V298.211C247.475 300.121 247.867 301.656 248.652 302.816C249.438 303.977 250.65 304.557 252.291 304.557ZM273.912 307.369C272.154 307.369 270.625 306.971 269.324 306.174C268.023 305.365 267.016 304.246 266.301 302.816C265.598 301.387 265.246 299.734 265.246 297.859V297.086C265.246 295.281 265.615 293.67 266.354 292.252C267.104 290.822 268.094 289.697 269.324 288.877C270.566 288.045 271.92 287.629 273.385 287.629C275.096 287.629 276.525 287.98 277.674 288.684C278.834 289.387 279.707 290.377 280.293 291.654C280.879 292.92 281.172 294.414 281.172 296.137V298.299H268.832L268.779 298.387C268.803 299.605 269.014 300.689 269.412 301.639C269.822 302.576 270.408 303.314 271.17 303.854C271.932 304.393 272.846 304.662 273.912 304.662C275.084 304.662 276.109 304.498 276.988 304.17C277.879 303.83 278.646 303.367 279.291 302.781L280.645 305.031C279.965 305.688 279.062 306.244 277.938 306.701C276.824 307.146 275.482 307.369 273.912 307.369ZM268.938 295.592H277.709V295.135C277.709 294.221 277.545 293.406 277.217 292.691C276.9 291.965 276.42 291.396 275.775 290.986C275.143 290.564 274.346 290.354 273.385 290.354C272.611 290.354 271.908 290.582 271.275 291.039C270.643 291.484 270.121 292.094 269.711 292.867C269.301 293.641 269.031 294.52 268.902 295.504L268.938 295.592ZM293.178 307.369C291.455 307.369 289.955 306.971 288.678 306.174C287.4 305.365 286.41 304.246 285.707 302.816C285.004 301.387 284.652 299.734 284.652 297.859V297.121C284.652 295.316 284.992 293.699 285.672 292.27C286.352 290.84 287.33 289.709 288.607 288.877C289.885 288.045 291.408 287.629 293.178 287.629C294.713 287.629 296.055 287.881 297.203 288.385C298.363 288.889 299.336 289.58 300.121 290.459L300.209 295.029H297.502L296.904 291.707C296.506 291.297 296.008 290.969 295.41 290.723C294.812 290.477 294.109 290.354 293.301 290.354C292.27 290.354 291.361 290.658 290.576 291.268C289.803 291.877 289.199 292.691 288.766 293.711C288.332 294.73 288.115 295.867 288.115 297.121V297.859C288.115 299.242 288.314 300.443 288.713 301.463C289.123 302.482 289.703 303.273 290.453 303.836C291.215 304.387 292.117 304.662 293.16 304.662C294.332 304.662 295.305 304.34 296.078 303.695C296.852 303.051 297.326 302.166 297.502 301.041H300.613L300.648 301.146C300.59 302.236 300.268 303.256 299.682 304.205C299.096 305.154 298.258 305.922 297.168 306.508C296.09 307.082 294.76 307.369 293.178 307.369ZM303.232 307V304.785L306.098 304.293V290.705L303.232 290.213V287.98H309.561V304.293L312.426 304.785V307H303.232ZM305.922 283.287V279.578H309.561V283.287H305.922ZM322.516 307.369C321.238 307.369 320.043 307.24 318.93 306.982C317.816 306.725 316.633 306.326 315.379 305.787L315.344 301.27H317.963L318.613 303.994C319.27 304.264 319.902 304.463 320.512 304.592C321.133 304.709 321.801 304.768 322.516 304.768C323.922 304.768 324.93 304.498 325.539 303.959C326.148 303.42 326.453 302.752 326.453 301.955C326.453 301.205 326.143 300.572 325.521 300.057C324.912 299.529 323.799 299.084 322.182 298.721C319.885 298.193 318.191 297.49 317.102 296.611C316.023 295.721 315.484 294.537 315.484 293.061C315.484 292.029 315.783 291.109 316.381 290.301C316.979 289.48 317.811 288.83 318.877 288.35C319.943 287.869 321.186 287.629 322.604 287.629C324.045 287.629 325.275 287.793 326.295 288.121C327.326 288.449 328.223 288.889 328.984 289.439L329.16 293.781H326.559L325.996 291.25C325.586 290.945 325.1 290.711 324.537 290.547C323.975 290.383 323.33 290.301 322.604 290.301C321.525 290.301 320.646 290.553 319.967 291.057C319.299 291.561 318.965 292.193 318.965 292.955C318.965 293.4 319.059 293.787 319.246 294.115C319.445 294.443 319.82 294.742 320.371 295.012C320.922 295.27 321.73 295.527 322.797 295.785C325.445 296.406 327.291 297.197 328.334 298.158C329.389 299.119 329.916 300.303 329.916 301.709C329.916 303.314 329.318 304.662 328.123 305.752C326.939 306.83 325.07 307.369 322.516 307.369ZM332.658 307V304.785L335.523 304.293V290.705L332.658 290.213V287.98H338.986V304.293L341.852 304.785V307H332.658ZM335.348 283.287V279.578H338.986V283.287H335.348ZM352.838 307.369C351.08 307.369 349.562 306.959 348.285 306.139C347.02 305.307 346.041 304.164 345.35 302.711C344.658 301.246 344.312 299.576 344.312 297.701V297.314C344.312 295.439 344.658 293.775 345.35 292.322C346.041 290.857 347.02 289.709 348.285 288.877C349.562 288.045 351.068 287.629 352.803 287.629C354.561 287.629 356.072 288.045 357.338 288.877C358.615 289.709 359.6 290.852 360.291 292.305C360.982 293.758 361.328 295.428 361.328 297.314V297.701C361.328 299.588 360.982 301.264 360.291 302.729C359.6 304.182 358.621 305.318 357.355 306.139C356.09 306.959 354.584 307.369 352.838 307.369ZM352.838 304.662C353.939 304.662 354.859 304.363 355.598 303.766C356.348 303.156 356.91 302.33 357.285 301.287C357.672 300.232 357.865 299.037 357.865 297.701V297.314C357.865 295.979 357.672 294.789 357.285 293.746C356.91 292.691 356.348 291.865 355.598 291.268C354.848 290.658 353.916 290.354 352.803 290.354C351.701 290.354 350.775 290.658 350.025 291.268C349.275 291.865 348.713 292.691 348.338 293.746C347.963 294.789 347.775 295.979 347.775 297.314V297.701C347.775 299.037 347.963 300.232 348.338 301.287C348.713 302.33 349.275 303.156 350.025 303.766C350.787 304.363 351.725 304.662 352.838 304.662ZM364 307V304.785L366.865 304.293V290.705L364 290.213V287.98H369.959L370.205 290.811C370.838 289.803 371.629 289.023 372.578 288.473C373.539 287.91 374.629 287.629 375.848 287.629C377.898 287.629 379.486 288.232 380.611 289.439C381.736 290.635 382.299 292.486 382.299 294.994V304.293L385.164 304.785V307H375.971V304.785L378.836 304.293V295.064C378.836 293.389 378.502 292.199 377.834 291.496C377.178 290.793 376.17 290.441 374.811 290.441C373.814 290.441 372.93 290.682 372.156 291.162C371.395 291.643 370.785 292.299 370.328 293.131V304.293L373.193 304.785V307H364ZM404.957 307.369C402.895 307.369 401.283 306.707 400.123 305.383C398.963 304.059 398.383 301.996 398.383 299.195V290.705L396.203 290.213V287.98H398.383H401.846V299.23C401.846 301.258 402.145 302.652 402.742 303.414C403.34 304.176 404.271 304.557 405.537 304.557C406.768 304.557 407.781 304.311 408.578 303.818C409.387 303.314 409.996 302.605 410.406 301.691V290.705L407.857 290.213V287.98H410.406H413.869V304.293L416.049 304.785V307H410.758L410.529 304.188C409.932 305.207 409.158 305.992 408.209 306.543C407.271 307.094 406.188 307.369 404.957 307.369ZM426.191 307.369C424.914 307.369 423.719 307.24 422.605 306.982C421.492 306.725 420.309 306.326 419.055 305.787L419.02 301.27H421.639L422.289 303.994C422.945 304.264 423.578 304.463 424.188 304.592C424.809 304.709 425.477 304.768 426.191 304.768C427.598 304.768 428.605 304.498 429.215 303.959C429.824 303.42 430.129 302.752 430.129 301.955C430.129 301.205 429.818 300.572 429.197 300.057C428.588 299.529 427.475 299.084 425.857 298.721C423.561 298.193 421.867 297.49 420.777 296.611C419.699 295.721 419.16 294.537 419.16 293.061C419.16 292.029 419.459 291.109 420.057 290.301C420.654 289.48 421.486 288.83 422.553 288.35C423.619 287.869 424.861 287.629 426.279 287.629C427.721 287.629 428.951 287.793 429.971 288.121C431.002 288.449 431.898 288.889 432.66 289.439L432.836 293.781H430.234L429.672 291.25C429.262 290.945 428.775 290.711 428.213 290.547C427.65 290.383 427.006 290.301 426.279 290.301C425.201 290.301 424.322 290.553 423.643 291.057C422.975 291.561 422.641 292.193 422.641 292.955C422.641 293.4 422.734 293.787 422.922 294.115C423.121 294.443 423.496 294.742 424.047 295.012C424.598 295.27 425.406 295.527 426.473 295.785C429.121 296.406 430.967 297.197 432.01 298.158C433.064 299.119 433.592 300.303 433.592 301.709C433.592 303.314 432.994 304.662 431.799 305.752C430.615 306.83 428.746 307.369 426.191 307.369ZM436.334 307V304.785L439.199 304.293V290.705L436.334 290.213V287.98H442.662V304.293L445.527 304.785V307H436.334ZM439.023 283.287V279.578H442.662V283.287H439.023ZM447.918 307V304.785L450.783 304.293V290.705L447.918 290.213V287.98H453.877L454.123 290.811C454.756 289.803 455.547 289.023 456.496 288.473C457.457 287.91 458.547 287.629 459.766 287.629C461.816 287.629 463.404 288.232 464.529 289.439C465.654 290.635 466.217 292.486 466.217 294.994V304.293L469.082 304.785V307H459.889V304.785L462.754 304.293V295.064C462.754 293.389 462.42 292.199 461.752 291.496C461.096 290.793 460.088 290.441 458.729 290.441C457.732 290.441 456.848 290.682 456.074 291.162C455.312 291.643 454.703 292.299 454.246 293.131V304.293L457.111 304.785V307H447.918ZM479.717 314.682C478.803 314.682 477.812 314.553 476.746 314.295C475.68 314.049 474.742 313.709 473.934 313.275L474.83 310.586C475.475 310.926 476.236 311.207 477.115 311.43C477.994 311.652 478.85 311.764 479.682 311.764C481.229 311.764 482.359 311.33 483.074 310.463C483.801 309.596 484.164 308.359 484.164 306.754V304.943C483.543 305.74 482.799 306.344 481.932 306.754C481.064 307.164 480.068 307.369 478.943 307.369C477.396 307.369 476.061 306.988 474.936 306.227C473.811 305.453 472.943 304.381 472.334 303.01C471.736 301.627 471.438 300.027 471.438 298.211V297.842C471.438 295.803 471.736 294.016 472.334 292.48C472.943 290.945 473.811 289.756 474.936 288.912C476.061 288.057 477.408 287.629 478.979 287.629C480.174 287.629 481.223 287.863 482.125 288.332C483.027 288.801 483.783 289.48 484.393 290.371L484.709 287.98H487.627V306.754C487.627 308.395 487.316 309.807 486.695 310.99C486.086 312.174 485.189 313.082 484.006 313.715C482.834 314.359 481.404 314.682 479.717 314.682ZM479.805 304.557C480.848 304.557 481.721 304.322 482.424 303.854C483.127 303.373 483.707 302.699 484.164 301.832V293.078C483.719 292.27 483.139 291.631 482.424 291.162C481.709 290.682 480.848 290.441 479.84 290.441C478.738 290.441 477.818 290.758 477.08 291.391C476.354 292.023 475.809 292.896 475.445 294.01C475.082 295.111 474.9 296.389 474.9 297.842V298.211C474.9 300.121 475.305 301.656 476.113 302.816C476.922 303.977 478.152 304.557 479.805 304.557ZM487.1 290.811L485.746 287.98H489.982V290.195L487.1 290.811ZM507.402 307.299C505.996 307.299 504.877 306.889 504.045 306.068C503.225 305.236 502.814 303.912 502.814 302.096V290.547H499.809V287.98H502.814V283.393H506.277V287.98H510.408V290.547H506.277V302.096C506.277 303.01 506.459 303.684 506.822 304.117C507.186 304.551 507.672 304.768 508.281 304.768C508.691 304.768 509.148 304.732 509.652 304.662C510.156 304.58 510.549 304.51 510.83 304.451L511.305 306.719C510.801 306.871 510.18 307.006 509.441 307.123C508.715 307.24 508.035 307.299 507.402 307.299ZM513.08 307V304.785L515.945 304.293V282.303L513.08 281.811V279.578H519.408V290.512C520.064 289.598 520.867 288.889 521.816 288.385C522.766 287.881 523.82 287.629 524.98 287.629C527.02 287.629 528.602 288.238 529.727 289.457C530.852 290.676 531.414 292.551 531.414 295.082V304.293L534.279 304.785V307H525.086V304.785L527.951 304.293V295.047C527.951 293.477 527.611 292.316 526.932 291.566C526.264 290.816 525.262 290.441 523.926 290.441C522.977 290.441 522.109 290.67 521.324 291.127C520.551 291.572 519.912 292.182 519.408 292.955V304.293L522.273 304.785V307H513.08ZM545.037 307.369C543.279 307.369 541.75 306.971 540.449 306.174C539.148 305.365 538.141 304.246 537.426 302.816C536.723 301.387 536.371 299.734 536.371 297.859V297.086C536.371 295.281 536.74 293.67 537.479 292.252C538.229 290.822 539.219 289.697 540.449 288.877C541.691 288.045 543.045 287.629 544.51 287.629C546.221 287.629 547.65 287.98 548.799 288.684C549.959 289.387 550.832 290.377 551.418 291.654C552.004 292.92 552.297 294.414 552.297 296.137V298.299H539.957L539.904 298.387C539.928 299.605 540.139 300.689 540.537 301.639C540.947 302.576 541.533 303.314 542.295 303.854C543.057 304.393 543.971 304.662 545.037 304.662C546.209 304.662 547.234 304.498 548.113 304.17C549.004 303.83 549.771 303.367 550.416 302.781L551.77 305.031C551.09 305.688 550.188 306.244 549.062 306.701C547.949 307.146 546.607 307.369 545.037 307.369ZM540.062 295.592H548.834V295.135C548.834 294.221 548.67 293.406 548.342 292.691C548.025 291.965 547.545 291.396 546.9 290.986C546.268 290.564 545.471 290.354 544.51 290.354C543.736 290.354 543.033 290.582 542.4 291.039C541.768 291.484 541.246 292.094 540.836 292.867C540.426 293.641 540.156 294.52 540.027 295.504L540.062 295.592ZM85.1934 355L78.4258 338.477L76.457 338.213V335.98H84.4375V338.213L81.959 338.564L86.1777 349.393L86.6699 350.922H86.7754L87.3379 349.393L91.2578 338.564L88.709 338.213V335.98H96.6719V338.213L94.668 338.477L88.2344 355H85.1934ZM106.709 355.369C104.951 355.369 103.422 354.971 102.121 354.174C100.82 353.365 99.8125 352.246 99.0977 350.816C98.3945 349.387 98.043 347.734 98.043 345.859V345.086C98.043 343.281 98.4121 341.67 99.1504 340.252C99.9004 338.822 100.891 337.697 102.121 336.877C103.363 336.045 104.717 335.629 106.182 335.629C107.893 335.629 109.322 335.98 110.471 336.684C111.631 337.387 112.504 338.377 113.09 339.654C113.676 340.92 113.969 342.414 113.969 344.137V346.299H101.629L101.576 346.387C101.6 347.605 101.811 348.689 102.209 349.639C102.619 350.576 103.205 351.314 103.967 351.854C104.729 352.393 105.643 352.662 106.709 352.662C107.881 352.662 108.906 352.498 109.785 352.17C110.676 351.83 111.443 351.367 112.088 350.781L113.441 353.031C112.762 353.688 111.859 354.244 110.734 354.701C109.621 355.146 108.279 355.369 106.709 355.369ZM101.734 343.592H110.506V343.135C110.506 342.221 110.342 341.406 110.014 340.691C109.697 339.965 109.217 339.396 108.572 338.986C107.939 338.564 107.143 338.354 106.182 338.354C105.408 338.354 104.705 338.582 104.072 339.039C103.439 339.484 102.918 340.094 102.508 340.867C102.098 341.641 101.828 342.52 101.699 343.504L101.734 343.592ZM116.641 355V352.785L119.506 352.293V338.705L116.641 338.213V335.98H122.6L122.898 338.406L122.934 338.74C123.473 337.768 124.135 337.006 124.92 336.455C125.717 335.904 126.625 335.629 127.645 335.629C128.008 335.629 128.377 335.664 128.752 335.734C129.139 335.793 129.414 335.852 129.578 335.91L129.121 339.127L126.713 338.986C125.799 338.928 125.031 339.139 124.41 339.619C123.789 340.088 123.309 340.721 122.969 341.518V352.293L125.834 352.785V355H116.641ZM131.125 355V352.785L133.234 352.381L138.912 345.385L133.357 338.617L131.477 338.213V335.98H138.93V338.213L137.031 338.424L140.934 343.275L144.73 338.406L142.691 338.213V335.98H150.021V338.213L148.088 338.617L142.938 345.332L148.861 352.381L150.83 352.785V355H142.762V352.785L145.047 352.592L140.881 347.512L136.838 352.592L138.895 352.785V355H131.125ZM152.729 355V352.785L155.594 352.293V338.705L152.729 338.213V335.98H159.057V352.293L161.922 352.785V355H152.729ZM155.418 331.287V327.578H159.057V331.287H155.418ZM172.908 355.369C171.15 355.369 169.633 354.959 168.355 354.139C167.09 353.307 166.111 352.164 165.42 350.711C164.729 349.246 164.383 347.576 164.383 345.701V345.314C164.383 343.439 164.729 341.775 165.42 340.322C166.111 338.857 167.09 337.709 168.355 336.877C169.633 336.045 171.139 335.629 172.873 335.629C174.631 335.629 176.143 336.045 177.408 336.877C178.686 337.709 179.67 338.852 180.361 340.305C181.053 341.758 181.398 343.428 181.398 345.314V345.701C181.398 347.588 181.053 349.264 180.361 350.729C179.67 352.182 178.691 353.318 177.426 354.139C176.16 354.959 174.654 355.369 172.908 355.369ZM172.908 352.662C174.01 352.662 174.93 352.363 175.668 351.766C176.418 351.156 176.98 350.33 177.355 349.287C177.742 348.232 177.936 347.037 177.936 345.701V345.314C177.936 343.979 177.742 342.789 177.355 341.746C176.98 340.691 176.418 339.865 175.668 339.268C174.918 338.658 173.986 338.354 172.873 338.354C171.771 338.354 170.846 338.658 170.096 339.268C169.346 339.865 168.783 340.691 168.408 341.746C168.033 342.789 167.846 343.979 167.846 345.314V345.701C167.846 347.037 168.033 348.232 168.408 349.287C168.783 350.33 169.346 351.156 170.096 351.766C170.857 352.363 171.795 352.662 172.908 352.662ZM200.506 355.369C198.959 355.369 197.629 354.988 196.516 354.227C195.414 353.453 194.57 352.381 193.984 351.01C193.398 349.639 193.105 348.039 193.105 346.211V345.842C193.105 343.803 193.398 342.016 193.984 340.48C194.57 338.945 195.42 337.756 196.533 336.912C197.646 336.057 198.982 335.629 200.541 335.629C201.666 335.629 202.656 335.84 203.512 336.262C204.379 336.672 205.117 337.27 205.727 338.055V330.303L202.861 329.811V327.578H205.727H209.189V352.293L212.055 352.785V355H206.184L205.902 352.732C205.281 353.6 204.52 354.256 203.617 354.701C202.727 355.146 201.689 355.369 200.506 355.369ZM201.385 352.557C202.416 352.557 203.283 352.322 203.986 351.854C204.689 351.385 205.27 350.723 205.727 349.867V341.043C205.281 340.246 204.701 339.613 203.986 339.145C203.271 338.676 202.416 338.441 201.42 338.441C200.318 338.441 199.41 338.758 198.695 339.391C197.98 340.012 197.447 340.879 197.096 341.992C196.744 343.094 196.568 344.377 196.568 345.842V346.211C196.568 348.121 196.961 349.656 197.746 350.816C198.531 351.977 199.744 352.557 201.385 352.557ZM220.598 355.369C218.617 355.369 217.111 354.889 216.08 353.928C215.049 352.955 214.533 351.59 214.533 349.832C214.533 348.625 214.861 347.576 215.518 346.686C216.186 345.783 217.146 345.086 218.4 344.594C219.654 344.09 221.154 343.838 222.9 343.838H226.293V341.975C226.293 340.826 225.941 339.936 225.238 339.303C224.547 338.67 223.568 338.354 222.303 338.354C221.506 338.354 220.814 338.453 220.229 338.652C219.643 338.84 219.109 339.104 218.629 339.443L218.26 342.098H215.588V337.738C216.443 337.047 217.439 336.525 218.576 336.174C219.713 335.811 220.973 335.629 222.355 335.629C224.664 335.629 226.475 336.18 227.787 337.281C229.1 338.383 229.756 339.959 229.756 342.01V351.168C229.756 351.414 229.756 351.654 229.756 351.889C229.768 352.123 229.785 352.357 229.809 352.592L231.654 352.785V355H226.68C226.574 354.484 226.492 354.021 226.434 353.611C226.375 353.201 226.334 352.791 226.311 352.381C225.643 353.236 224.805 353.951 223.797 354.525C222.801 355.088 221.734 355.369 220.598 355.369ZM221.107 352.469C222.256 352.469 223.305 352.193 224.254 351.643C225.203 351.092 225.883 350.43 226.293 349.656V346.211H222.777C221.184 346.211 219.988 346.592 219.191 347.354C218.395 348.115 217.996 348.965 217.996 349.902C217.996 350.734 218.254 351.373 218.77 351.818C219.285 352.252 220.064 352.469 221.107 352.469ZM242.043 355.369C240.766 355.369 239.57 355.24 238.457 354.982C237.344 354.725 236.16 354.326 234.906 353.787L234.871 349.27H237.49L238.141 351.994C238.797 352.264 239.43 352.463 240.039 352.592C240.66 352.709 241.328 352.768 242.043 352.768C243.449 352.768 244.457 352.498 245.066 351.959C245.676 351.42 245.98 350.752 245.98 349.955C245.98 349.205 245.67 348.572 245.049 348.057C244.439 347.529 243.326 347.084 241.709 346.721C239.412 346.193 237.719 345.49 236.629 344.611C235.551 343.721 235.012 342.537 235.012 341.061C235.012 340.029 235.311 339.109 235.908 338.301C236.506 337.48 237.338 336.83 238.404 336.35C239.471 335.869 240.713 335.629 242.131 335.629C243.572 335.629 244.803 335.793 245.822 336.121C246.854 336.449 247.75 336.889 248.512 337.439L248.688 341.781H246.086L245.523 339.25C245.113 338.945 244.627 338.711 244.064 338.547C243.502 338.383 242.857 338.301 242.131 338.301C241.053 338.301 240.174 338.553 239.494 339.057C238.826 339.561 238.492 340.193 238.492 340.955C238.492 341.4 238.586 341.787 238.773 342.115C238.973 342.443 239.348 342.742 239.898 343.012C240.449 343.27 241.258 343.527 242.324 343.785C244.973 344.406 246.818 345.197 247.861 346.158C248.916 347.119 249.443 348.303 249.443 349.709C249.443 351.314 248.846 352.662 247.65 353.752C246.467 354.83 244.598 355.369 242.043 355.369ZM251.869 355V352.785L254.734 352.293V330.303L251.869 329.811V327.578H258.197V338.512C258.854 337.598 259.656 336.889 260.605 336.385C261.555 335.881 262.609 335.629 263.77 335.629C265.809 335.629 267.391 336.238 268.516 337.457C269.641 338.676 270.203 340.551 270.203 343.082V352.293L273.068 352.785V355H263.875V352.785L266.74 352.293V343.047C266.74 341.477 266.4 340.316 265.721 339.566C265.053 338.816 264.051 338.441 262.715 338.441C261.766 338.441 260.898 338.67 260.113 339.127C259.34 339.572 258.701 340.182 258.197 340.955V352.293L261.062 352.785V355H251.869ZM285.549 355.369C284.307 355.369 283.229 355.135 282.314 354.666C281.4 354.186 280.639 353.482 280.029 352.557L279.713 355H276.725V330.303L273.859 329.811V327.578H280.188V338.23C280.785 337.387 281.523 336.742 282.402 336.297C283.293 335.852 284.33 335.629 285.514 335.629C287.084 335.629 288.42 336.057 289.521 336.912C290.635 337.756 291.484 338.945 292.07 340.48C292.668 342.016 292.967 343.803 292.967 345.842V346.211C292.967 348.039 292.668 349.639 292.07 351.01C291.484 352.381 290.635 353.453 289.521 354.227C288.42 354.988 287.096 355.369 285.549 355.369ZM284.67 352.557C286.299 352.557 287.506 351.977 288.291 350.816C289.088 349.656 289.486 348.121 289.486 346.211V345.842C289.486 344.377 289.311 343.094 288.959 341.992C288.607 340.879 288.074 340.012 287.359 339.391C286.645 338.758 285.736 338.441 284.635 338.441C283.568 338.441 282.666 338.699 281.928 339.215C281.201 339.73 280.621 340.422 280.188 341.289V349.691C280.621 350.57 281.207 351.268 281.945 351.783C282.695 352.299 283.604 352.557 284.67 352.557ZM304.885 355.369C303.127 355.369 301.609 354.959 300.332 354.139C299.066 353.307 298.088 352.164 297.396 350.711C296.705 349.246 296.359 347.576 296.359 345.701V345.314C296.359 343.439 296.705 341.775 297.396 340.322C298.088 338.857 299.066 337.709 300.332 336.877C301.609 336.045 303.115 335.629 304.85 335.629C306.607 335.629 308.119 336.045 309.385 336.877C310.662 337.709 311.646 338.852 312.338 340.305C313.029 341.758 313.375 343.428 313.375 345.314V345.701C313.375 347.588 313.029 349.264 312.338 350.729C311.646 352.182 310.668 353.318 309.402 354.139C308.137 354.959 306.631 355.369 304.885 355.369ZM304.885 352.662C305.986 352.662 306.906 352.363 307.645 351.766C308.395 351.156 308.957 350.33 309.332 349.287C309.719 348.232 309.912 347.037 309.912 345.701V345.314C309.912 343.979 309.719 342.789 309.332 341.746C308.957 340.691 308.395 339.865 307.645 339.268C306.895 338.658 305.963 338.354 304.85 338.354C303.748 338.354 302.822 338.658 302.072 339.268C301.322 339.865 300.76 340.691 300.385 341.746C300.01 342.789 299.822 343.979 299.822 345.314V345.701C299.822 347.037 300.01 348.232 300.385 349.287C300.76 350.33 301.322 351.156 302.072 351.766C302.834 352.363 303.771 352.662 304.885 352.662ZM322.551 355.369C320.57 355.369 319.064 354.889 318.033 353.928C317.002 352.955 316.486 351.59 316.486 349.832C316.486 348.625 316.814 347.576 317.471 346.686C318.139 345.783 319.1 345.086 320.354 344.594C321.607 344.09 323.107 343.838 324.854 343.838H328.246V341.975C328.246 340.826 327.895 339.936 327.191 339.303C326.5 338.67 325.521 338.354 324.256 338.354C323.459 338.354 322.768 338.453 322.182 338.652C321.596 338.84 321.062 339.104 320.582 339.443L320.213 342.098H317.541V337.738C318.396 337.047 319.393 336.525 320.529 336.174C321.666 335.811 322.926 335.629 324.309 335.629C326.617 335.629 328.428 336.18 329.74 337.281C331.053 338.383 331.709 339.959 331.709 342.01V351.168C331.709 351.414 331.709 351.654 331.709 351.889C331.721 352.123 331.738 352.357 331.762 352.592L333.607 352.785V355H328.633C328.527 354.484 328.445 354.021 328.387 353.611C328.328 353.201 328.287 352.791 328.264 352.381C327.596 353.236 326.758 353.951 325.75 354.525C324.754 355.088 323.688 355.369 322.551 355.369ZM323.061 352.469C324.209 352.469 325.258 352.193 326.207 351.643C327.156 351.092 327.836 350.43 328.246 349.656V346.211H324.73C323.137 346.211 321.941 346.592 321.145 347.354C320.348 348.115 319.949 348.965 319.949 349.902C319.949 350.734 320.207 351.373 320.723 351.818C321.238 352.252 322.018 352.469 323.061 352.469ZM336.262 355V352.785L339.127 352.293V338.705L336.262 338.213V335.98H342.221L342.52 338.406L342.555 338.74C343.094 337.768 343.756 337.006 344.541 336.455C345.338 335.904 346.246 335.629 347.266 335.629C347.629 335.629 347.998 335.664 348.373 335.734C348.76 335.793 349.035 335.852 349.199 335.91L348.742 339.127L346.334 338.986C345.42 338.928 344.652 339.139 344.031 339.619C343.41 340.088 342.93 340.721 342.59 341.518V352.293L345.455 352.785V355H336.262ZM358.428 355.369C356.881 355.369 355.551 354.988 354.438 354.227C353.336 353.453 352.492 352.381 351.906 351.01C351.32 349.639 351.027 348.039 351.027 346.211V345.842C351.027 343.803 351.32 342.016 351.906 340.48C352.492 338.945 353.342 337.756 354.455 336.912C355.568 336.057 356.904 335.629 358.463 335.629C359.588 335.629 360.578 335.84 361.434 336.262C362.301 336.672 363.039 337.27 363.648 338.055V330.303L360.783 329.811V327.578H363.648H367.111V352.293L369.977 352.785V355H364.105L363.824 352.732C363.203 353.6 362.441 354.256 361.539 354.701C360.648 355.146 359.611 355.369 358.428 355.369ZM359.307 352.557C360.338 352.557 361.205 352.322 361.908 351.854C362.611 351.385 363.191 350.723 363.648 349.867V341.043C363.203 340.246 362.623 339.613 361.908 339.145C361.193 338.676 360.338 338.441 359.342 338.441C358.24 338.441 357.332 338.758 356.617 339.391C355.902 340.012 355.369 340.879 355.018 341.992C354.666 343.094 354.49 344.377 354.49 345.842V346.211C354.49 348.121 354.883 349.656 355.668 350.816C356.453 351.977 357.666 352.557 359.307 352.557Z" fill="#151751"/>
<circle cx="120.182" cy="717.5" r="36.45" fill="#F3F3FC" stroke="#0D0E32" stroke-width="0.736364"/>
<circle cx="112.818" cy="717.5" r="36.45" fill="#F3F3FC" stroke="#0D0E32" stroke-width="0.736364"/>
<rect x="102.509" y="702.036" width="8.1" height="31.6636" fill="#0D0E32"/>
<rect x="115.764" y="702.036" width="8.1" height="31.6636" fill="#0D0E32"/>
<path d="M195.789 736.492C193.461 736.492 191.297 736.203 189.297 735.625C187.297 735.047 185.352 734.086 183.461 732.742V724.891H188.031L188.781 729.977C189.609 730.57 190.625 731.047 191.828 731.406C193.047 731.766 194.367 731.945 195.789 731.945C197.18 731.945 198.344 731.75 199.281 731.359C200.234 730.953 200.961 730.391 201.461 729.672C201.961 728.953 202.211 728.102 202.211 727.117C202.211 726.211 201.992 725.406 201.555 724.703C201.117 724 200.391 723.375 199.375 722.828C198.359 722.266 196.984 721.75 195.25 721.281C192.703 720.594 190.57 719.781 188.852 718.844C187.148 717.906 185.859 716.781 184.984 715.469C184.125 714.156 183.695 712.609 183.695 710.828C183.695 709 184.188 707.383 185.172 705.977C186.172 704.57 187.555 703.461 189.32 702.648C191.086 701.836 193.125 701.422 195.438 701.406C197.969 701.375 200.203 701.703 202.141 702.391C204.094 703.078 205.742 703.977 207.086 705.086V712.422H202.609L201.766 707.641C201.125 707.188 200.289 706.805 199.258 706.492C198.242 706.164 197.039 706 195.648 706C194.461 706 193.414 706.195 192.508 706.586C191.602 706.977 190.891 707.531 190.375 708.25C189.859 708.953 189.602 709.797 189.602 710.781C189.602 711.641 189.828 712.391 190.281 713.031C190.734 713.672 191.492 714.258 192.555 714.789C193.617 715.305 195.055 715.828 196.867 716.359C200.57 717.344 203.375 718.703 205.281 720.438C207.188 722.172 208.141 724.383 208.141 727.07C208.141 728.961 207.625 730.617 206.594 732.039C205.578 733.445 204.141 734.539 202.281 735.32C200.438 736.102 198.273 736.492 195.789 736.492ZM220.961 736.445C218.805 736.445 217.125 735.844 215.922 734.641C214.719 733.422 214.117 731.484 214.117 728.828V714.859H210.414V710.641H214.117V704.477H220V710.641H225.016V714.859H220V728.828C220 729.906 220.219 730.695 220.656 731.195C221.109 731.68 221.719 731.922 222.484 731.922C222.922 731.922 223.406 731.883 223.938 731.805C224.484 731.727 224.922 731.648 225.25 731.57L225.859 735.719C225.172 735.922 224.383 736.094 223.492 736.234C222.617 736.375 221.773 736.445 220.961 736.445ZM236.992 736.492C234.414 736.492 232.406 735.828 230.969 734.5C229.531 733.172 228.812 731.344 228.812 729.016C228.812 727.422 229.25 726.023 230.125 724.82C231 723.617 232.281 722.68 233.969 722.008C235.656 721.32 237.703 720.977 240.109 720.977H243.977V718.844C243.977 717.5 243.57 716.43 242.758 715.633C241.961 714.836 240.797 714.438 239.266 714.438C238.391 714.438 237.617 714.547 236.945 714.766C236.273 714.969 235.672 715.266 235.141 715.656L234.602 719.078H230.266L230.219 712.82C231.469 712.008 232.859 711.367 234.391 710.898C235.922 710.414 237.625 710.172 239.5 710.172C242.719 710.172 245.25 710.93 247.094 712.445C248.953 713.945 249.883 716.102 249.883 718.914V730.094C249.883 730.438 249.883 730.773 249.883 731.102C249.898 731.43 249.922 731.75 249.953 732.062L252.531 732.391V736H244.82C244.664 735.453 244.516 734.922 244.375 734.406C244.25 733.891 244.156 733.375 244.094 732.859C243.25 733.922 242.227 734.797 241.023 735.484C239.836 736.156 238.492 736.492 236.992 736.492ZM238.328 731.922C239.516 731.922 240.625 731.648 241.656 731.102C242.688 730.539 243.461 729.836 243.977 728.992V724.75H240.039C238.273 724.75 236.938 725.164 236.031 725.992C235.141 726.805 234.695 727.758 234.695 728.852C234.695 729.836 235.008 730.594 235.633 731.125C236.258 731.656 237.156 731.922 238.328 731.922ZM255.695 736V732.391L259.211 731.688V714.977L255.508 714.273V710.641H264.648L264.953 713.828L265 714.344C265.672 713 266.492 711.969 267.461 711.25C268.445 710.531 269.594 710.172 270.906 710.172C271.344 710.172 271.805 710.211 272.289 710.289C272.789 710.367 273.195 710.453 273.508 710.547L272.828 716.008L269.523 715.82C268.445 715.758 267.555 715.969 266.852 716.453C266.164 716.938 265.586 717.609 265.117 718.469V731.688L268.633 732.391V736H255.695ZM286.117 736.445C283.961 736.445 282.281 735.844 281.078 734.641C279.875 733.422 279.273 731.484 279.273 728.828V714.859H275.57V710.641H279.273V704.477H285.156V710.641H290.172V714.859H285.156V728.828C285.156 729.906 285.375 730.695 285.812 731.195C286.266 731.68 286.875 731.922 287.641 731.922C288.078 731.922 288.562 731.883 289.094 731.805C289.641 731.727 290.078 731.648 290.406 731.57L291.016 735.719C290.328 735.922 289.539 736.094 288.648 736.234C287.773 736.375 286.93 736.445 286.117 736.445ZM321.273 736.492C317.992 736.492 315.172 735.781 312.812 734.359C310.453 732.922 308.641 730.938 307.375 728.406C306.109 725.859 305.477 722.914 305.477 719.57V718.656C305.477 715.234 306.102 712.234 307.352 709.656C308.617 707.062 310.383 705.039 312.648 703.586C314.914 702.117 317.555 701.383 320.57 701.383C323.102 701.383 325.383 701.711 327.414 702.367C329.445 703.008 331.195 703.93 332.664 705.133V712.422H328.141L327.391 707.688C326.703 707.172 325.828 706.766 324.766 706.469C323.703 706.172 322.469 706.023 321.062 706.023C319.141 706.023 317.445 706.555 315.977 707.617C314.523 708.664 313.391 710.133 312.578 712.023C311.781 713.898 311.383 716.094 311.383 718.609V719.57C311.383 722.055 311.766 724.219 312.531 726.062C313.312 727.906 314.445 729.336 315.93 730.352C317.43 731.367 319.25 731.875 321.391 731.875C322.75 731.875 323.945 731.75 324.977 731.5C326.023 731.25 326.914 730.938 327.648 730.562V723.836L322.07 723.508V719.312H333.555V732.859C332.258 733.875 330.602 734.734 328.586 735.438C326.586 736.141 324.148 736.492 321.273 736.492ZM337.82 736V732.391L341.336 731.688V714.977L337.633 714.273V710.641H346.773L347.078 713.828L347.125 714.344C347.797 713 348.617 711.969 349.586 711.25C350.57 710.531 351.719 710.172 353.031 710.172C353.469 710.172 353.93 710.211 354.414 710.289C354.914 710.367 355.32 710.453 355.633 710.547L354.953 716.008L351.648 715.82C350.57 715.758 349.68 715.969 348.977 716.453C348.289 716.938 347.711 717.609 347.242 718.469V731.688L350.758 732.391V736H337.82ZM369.391 736.492C366.953 736.492 364.859 735.945 363.109 734.852C361.359 733.758 360.016 732.242 359.078 730.305C358.141 728.352 357.672 726.109 357.672 723.578V723.086C357.672 720.57 358.141 718.344 359.078 716.406C360.016 714.469 361.359 712.945 363.109 711.836C364.859 710.727 366.938 710.172 369.344 710.172C371.781 710.172 373.875 710.727 375.625 711.836C377.375 712.93 378.719 714.445 379.656 716.383C380.594 718.32 381.062 720.555 381.062 723.086V723.578C381.062 726.109 380.594 728.352 379.656 730.305C378.719 732.242 377.375 733.758 375.625 734.852C373.891 735.945 371.812 736.492 369.391 736.492ZM369.391 731.945C370.703 731.945 371.781 731.594 372.625 730.891C373.484 730.172 374.125 729.188 374.547 727.938C374.969 726.672 375.18 725.219 375.18 723.578V723.086C375.18 721.461 374.969 720.023 374.547 718.773C374.125 717.523 373.484 716.539 372.625 715.82C371.766 715.102 370.672 714.742 369.344 714.742C368.047 714.742 366.969 715.102 366.109 715.82C365.25 716.539 364.609 717.523 364.188 718.773C363.781 720.023 363.578 721.461 363.578 723.086V723.578C363.578 725.219 363.781 726.672 364.188 727.938C364.609 729.188 365.25 730.172 366.109 730.891C366.984 731.594 368.078 731.945 369.391 731.945ZM392.125 736L385.891 714.742L382.914 714.273V710.641H394.422V714.273L391.562 714.789L394.398 725.805L394.984 728.195H395.125L395.945 725.805L401.266 710.641H405.555L410.688 725.898L411.555 728.594H411.695L412.516 725.898L415.586 714.789L412.539 714.273V710.641H423.812V714.273L420.906 714.766L414.414 736H409.234L404.383 722.312L403.398 718.984H403.258L402.273 722.312L397.305 736H392.125ZM426.062 736V732.391L429.578 731.688V714.977L425.852 714.273V710.641H435.484V731.688L438.977 732.391V736H426.062ZM429.344 704.898V699.438H435.484V704.898H429.344ZM441.508 736V732.391L445.023 731.688V714.977L441.32 714.273V710.641H450.461L450.766 714.32C451.609 713.008 452.656 711.992 453.906 711.273C455.172 710.539 456.602 710.172 458.195 710.172C460.805 710.172 462.836 710.977 464.289 712.586C465.742 714.18 466.469 716.68 466.469 720.086V731.688L469.984 732.391V736H457.258V732.391L460.562 731.688V720.133C460.562 718.211 460.18 716.852 459.414 716.055C458.648 715.242 457.508 714.836 455.992 714.836C454.852 714.836 453.852 715.094 452.992 715.609C452.148 716.109 451.461 716.812 450.93 717.719V731.688L454.141 732.391V736H441.508ZM483.531 746.242C482.281 746.242 480.891 746.07 479.359 745.727C477.844 745.398 476.508 744.938 475.352 744.344L476.57 740.031C477.57 740.484 478.672 740.852 479.875 741.133C481.078 741.414 482.219 741.555 483.297 741.555C485.234 741.555 486.648 741.016 487.539 739.938C488.445 738.875 488.898 737.367 488.898 735.414V733.422C488.117 734.422 487.188 735.188 486.109 735.719C485.031 736.234 483.797 736.492 482.406 736.492C480.344 736.492 478.562 735.977 477.062 734.945C475.578 733.914 474.438 732.469 473.641 730.609C472.859 728.75 472.469 726.594 472.469 724.141V723.648C472.469 720.945 472.859 718.586 473.641 716.57C474.438 714.555 475.57 712.984 477.039 711.859C478.523 710.734 480.289 710.172 482.336 710.172C483.883 710.172 485.227 710.492 486.367 711.133C487.508 711.758 488.477 712.656 489.273 713.828L489.719 710.641H494.805V735.438C494.805 737.641 494.359 739.547 493.469 741.156C492.578 742.781 491.289 744.031 489.602 744.906C487.914 745.797 485.891 746.242 483.531 746.242ZM484 731.828C485.141 731.828 486.109 731.586 486.906 731.102C487.719 730.617 488.383 729.914 488.898 728.992V717.695C488.383 716.805 487.719 716.109 486.906 715.609C486.094 715.094 485.133 714.836 484.023 714.836C482.727 714.836 481.656 715.211 480.812 715.961C479.984 716.695 479.367 717.727 478.961 719.055C478.57 720.367 478.375 721.898 478.375 723.648V724.141C478.375 726.484 478.82 728.352 479.711 729.742C480.617 731.133 482.047 731.828 484 731.828ZM494.008 715.094L491.523 710.641H497.852V714.273L494.008 715.094Z" fill="#F3F3FC"/>
</svg>
