<svg width="19" height="18" viewBox="0 0 19 18" fill="none" xmlns="http://www.w3.org/2000/svg">
<path d="M17.0283 0H2.02832C1.6305 0 1.24896 0.158035 0.96766 0.43934C0.686356 0.720644 0.52832 1.10218 0.52832 1.5V16.5C0.52832 16.8978 0.686356 17.2794 0.96766 17.5607C1.24896 17.842 1.6305 18 2.02832 18H17.0283C17.4261 18 17.8077 17.842 18.089 17.5607C18.3703 17.2794 18.5283 16.8978 18.5283 16.5V1.5C18.5283 1.10218 18.3703 0.720644 18.089 0.43934C17.8077 0.158035 17.4261 0 17.0283 0ZM14.7783 9.75H10.2783V14.25C10.2783 14.4489 10.1993 14.6397 10.0587 14.7803C9.918 14.921 9.72723 15 9.52832 15C9.32941 15 9.13864 14.921 8.99799 14.7803C8.85734 14.6397 8.77832 14.4489 8.77832 14.25V9.75H4.27832C4.07941 9.75 3.88864 9.67098 3.74799 9.53033C3.60734 9.38968 3.52832 9.19891 3.52832 9C3.52832 8.80109 3.60734 8.61032 3.74799 8.46967C3.88864 8.32902 4.07941 8.25 4.27832 8.25H8.77832V3.75C8.77832 3.55109 8.85734 3.36032 8.99799 3.21967C9.13864 3.07902 9.32941 3 9.52832 3C9.72723 3 9.918 3.07902 10.0587 3.21967C10.1993 3.36032 10.2783 3.55109 10.2783 3.75V8.25H14.7783C14.9772 8.25 15.168 8.32902 15.3087 8.46967C15.4493 8.61032 15.5283 8.80109 15.5283 9C15.5283 9.19891 15.4493 9.38968 15.3087 9.53033C15.168 9.67098 14.9772 9.75 14.7783 9.75Z" fill="#00ADEF"/>
</svg>
