<svg width="75" height="80" viewBox="0 0 75 80" fill="none" xmlns="http://www.w3.org/2000/svg">
<circle cx="37.5" cy="42.0005" r="37.5" fill="#0AFFAA"/>
<circle cx="37.5" cy="37.5" r="37.5" fill="#00F29E"/>
<path d="M49.24 45.08C49.24 46.28 48.6933 47.5733 47.6 48.96C46.5333 50.3467 45.1733 51.5733 43.52 52.64C41.8933 53.7067 40.32 54.3867 38.8 54.68V62H35.32V54.76C33.4533 54.6267 31.5067 54.3867 29.48 54.04C27.48 53.6933 26 53.3333 25.04 52.96V44.2H28.8C29.9733 46.36 31.3333 48.04 32.88 49.24C34.4267 50.44 35.9867 51.04 37.56 51.04C38.7867 51.04 39.7733 50.6933 40.52 50C41.2667 49.28 41.64 48.4133 41.64 47.4C41.64 46.6 41.32 45.84 40.68 45.12C40.0667 44.4 39.28 43.7333 38.32 43.12C37.36 42.5067 36.08 41.76 34.48 40.88C32.5067 39.7867 30.8933 38.8267 29.64 38C28.4133 37.1733 27.3733 36.2133 26.52 35.12C25.6667 34.0267 25.24 32.8267 25.24 31.52C25.24 30.2933 25.76 28.9733 26.8 27.56C27.84 26.1467 29.1467 24.9067 30.72 23.84C32.32 22.7733 33.8533 22.1067 35.32 21.84V14.52H38.8V21.84C40.5333 21.9733 42.28 22.2133 44.04 22.56C45.8267 22.9067 47.1467 23.2667 48 23.64V32.4H44.24C43.12 30.24 41.88 28.56 40.52 27.36C39.1867 26.16 37.7733 25.56 36.28 25.56C35.2133 25.56 34.3733 25.9067 33.76 26.6C33.1467 27.2667 32.84 28.12 32.84 29.16C32.84 30.0133 33.16 30.8267 33.8 31.6C34.4667 32.3467 35.28 33.04 36.24 33.68C37.2267 34.2933 38.5467 35.0533 40.2 35.96C42.1467 37.0267 43.72 37.96 44.92 38.76C46.12 39.56 47.1333 40.4933 47.96 41.56C48.7867 42.6267 49.2 43.8 49.2 45.08H49.24Z" fill="#003D28"/>
</svg>
