<svg width="90" height="95" viewBox="0 0 90 95" fill="none" xmlns="http://www.w3.org/2000/svg">
<circle cx="44.8111" cy="50.1891" r="44.8111" fill="#35BEF3"/>
<circle cx="44.8111" cy="44.8111" r="44.8111" fill="#66CDF4"/>
<path d="M59.488 54.296C59.488 55.736 58.832 57.288 57.52 58.952C56.24 60.616 54.608 62.088 52.624 63.368C50.672 64.648 48.784 65.464 46.96 65.816V74.6H42.784V65.912C40.544 65.752 38.208 65.464 35.776 65.048C33.376 64.632 31.6 64.2 30.448 63.752V53.24H34.96C36.368 55.832 38 57.848 39.856 59.288C41.712 60.728 43.584 61.448 45.472 61.448C46.944 61.448 48.128 61.032 49.024 60.2C49.92 59.336 50.368 58.296 50.368 57.08C50.368 56.12 49.984 55.208 49.216 54.344C48.48 53.48 47.536 52.68 46.384 51.944C45.232 51.208 43.696 50.312 41.776 49.256C39.408 47.944 37.472 46.792 35.968 45.8C34.496 44.808 33.248 43.656 32.224 42.344C31.2 41.032 30.688 39.592 30.688 38.024C30.688 36.552 31.312 34.968 32.56 33.272C33.808 31.576 35.376 30.088 37.264 28.808C39.184 27.528 41.024 26.728 42.784 26.408V17.624H46.96V26.408C49.04 26.568 51.136 26.856 53.248 27.272C55.392 27.688 56.976 28.12 58 28.568V39.08H53.488C52.144 36.488 50.656 34.472 49.024 33.032C47.424 31.592 45.728 30.872 43.936 30.872C42.656 30.872 41.648 31.288 40.912 32.12C40.176 32.92 39.808 33.944 39.808 35.192C39.808 36.216 40.192 37.192 40.96 38.12C41.76 39.016 42.736 39.848 43.888 40.616C45.072 41.352 46.656 42.264 48.64 43.352C50.976 44.632 52.864 45.752 54.304 46.712C55.744 47.672 56.96 48.792 57.952 50.072C58.944 51.352 59.44 52.76 59.44 54.296H59.488Z" fill="#F3F3FC"/>
</svg>
