<svg width="21" height="20" viewBox="0 0 21 20" fill="none" xmlns="http://www.w3.org/2000/svg">
<path d="M10.5 1.25C8.18807 1.27805 5.97873 2.20893 4.34383 3.84383C2.70893 5.47873 1.77805 7.68807 1.75 10C1.77805 12.3119 2.70893 14.5213 4.34383 16.1562C5.97873 17.7911 8.18807 18.7219 10.5 18.75C12.8119 18.7219 15.0213 17.7911 16.6562 16.1562C18.2911 14.5213 19.2219 12.3119 19.25 10C19.2219 7.68807 18.2911 5.47873 16.6562 3.84383C15.0213 2.20893 12.8119 1.27805 10.5 1.25ZM15.5 10.625H11.125V15H9.875V10.625H5.5V9.375H9.875V5H11.125V9.375H15.5V10.625Z" fill="#F7F7FD"/>
</svg>
