<svg width="23" height="23" viewBox="0 0 23 23" fill="none" xmlns="http://www.w3.org/2000/svg">
<path d="M21.7821 6.00925L16.9533 1.18132C16.7928 1.02074 16.6022 0.893356 16.3924 0.806446C16.1827 0.719537 15.9578 0.674805 15.7308 0.674805C15.5037 0.674805 15.2788 0.719537 15.0691 0.806446C14.8593 0.893356 14.6687 1.02074 14.5082 1.18132L1.1845 14.5057C1.02327 14.6656 0.895435 14.856 0.80844 15.0658C0.721444 15.2756 0.677018 15.5006 0.677743 15.7278V20.5568C0.677743 21.0153 0.859884 21.4551 1.1841 21.7793C1.50831 22.1035 1.94804 22.2857 2.40655 22.2857H20.559C20.7882 22.2857 21.0081 22.1946 21.1702 22.0325C21.3323 21.8704 21.4234 21.6505 21.4234 21.4212C21.4234 21.192 21.3323 20.9721 21.1702 20.81C21.0081 20.6478 20.7882 20.5568 20.559 20.5568H9.68048L21.7821 8.45455C21.9427 8.294 22.0701 8.10339 22.157 7.89361C22.2439 7.68382 22.2886 7.45897 22.2886 7.2319C22.2886 7.00482 22.2439 6.77997 22.157 6.57019C22.0701 6.3604 21.9427 6.1698 21.7821 6.00925ZM7.23531 20.5568H2.40655V15.7278L11.915 6.21888L16.7437 11.0479L7.23531 20.5568ZM17.9658 9.82577L13.1381 4.99677L15.7313 2.40343L20.559 7.23244L17.9658 9.82577Z" fill="#9E9E9E"/>
</svg>
