<svg width="24" height="24" viewBox="0 0 24 24" fill="none" xmlns="http://www.w3.org/2000/svg">
<path d="M20.3302 2.00165C18.7563 1.05428 17.0912 0.381129 15.3789 0C15.1656 0.49604 14.9165 1.16322 14.7446 1.69399C12.8985 1.33688 11.0693 1.33688 9.25715 1.69399C9.0854 1.16334 8.83059 0.49604 8.61534 0C6.90139 0.381305 5.23486 1.05617 3.66018 2.00659C0.526681 8.09813 -0.322788 14.0382 0.1019 19.8942C2.18024 21.8908 4.19437 23.1037 6.17456 23.8974C6.66668 23.0268 7.10171 22.105 7.47515 21.1417C6.76417 20.7935 6.07877 20.3644 5.42709 19.8595C5.59858 19.6959 5.76604 19.5255 5.92921 19.3485C9.87815 21.7246 14.1689 21.7246 18.0708 19.3485C18.2347 19.5243 18.4021 19.6947 18.5728 19.8595C17.9201 20.3657 17.2334 20.7957 16.521 21.1442C16.8966 22.1115 17.3308 23.0341 17.8216 23.8998C19.8036 23.1062 21.8196 21.8933 23.898 19.8942C24.3964 13.1057 23.0467 7.22014 20.3302 2.00165ZM8.01318 16.2929C6.82771 16.2929 5.85553 14.8691 5.85553 13.1355C5.85553 11.4018 6.80699 9.97568 8.01318 9.97568C9.21946 9.97568 10.1916 11.3993 10.1708 13.1355C10.1727 14.8691 9.21946 16.2929 8.01318 16.2929ZM15.9867 16.2929C14.8012 16.2929 13.8291 14.8691 13.8291 13.1355C13.8291 11.4018 14.7805 9.97568 15.9867 9.97568C17.193 9.97568 18.1651 11.3993 18.1444 13.1355C18.1444 14.8691 17.193 16.2929 15.9867 16.2929Z" fill="#5865F2"/>
</svg>
