<svg width="67" height="72" viewBox="0 0 67 72" fill="none" xmlns="http://www.w3.org/2000/svg">
<path d="M8 1.81116L18.5922 4.18273L27.8156 22.6213L23.3511 31.6734L8 1.81116Z" fill="#00ADEF"/>
<path d="M25.1842 5.1969L32.2875 4.19506L50.7806 30.6045L49.2736 39.1994L25.1842 5.1969Z" fill="#00ADEF"/>
<path d="M56.8697 9.13061L53.6363 2.74578L43.7935 16.4843L47.9688 22.4166L56.8697 9.13061Z" fill="#00ADEF"/>
<path d="M40.6498 30.0771L37.213 24.349L33.4644 29.5043L39.1924 32.0094L40.6498 30.0771Z" fill="#00ADEF"/>
<path d="M24.7426 33.6793L28.539 24.6024C33.95 34.014 33.0507 33.26 42.4265 33.8329L35.0857 40.5388C31.1205 43.2158 30.0874 42.6612 24.7426 33.6793Z" fill="#00ADEF"/>
<path d="M4.32 67.3237L0.42 53.3237H2.66L6.06 65.9637H6.32L9.7 53.3237H11.94L8.06 67.3237H4.32ZM18.9588 67.6037C17.9588 67.6037 17.0854 67.3971 16.3387 66.9837C15.5921 66.5571 15.0054 65.9637 14.5787 65.2037C14.1654 64.4304 13.9587 63.5371 13.9587 62.5237V62.2837C13.9587 61.2571 14.1654 60.3637 14.5787 59.6037C14.9921 58.8304 15.5654 58.2371 16.2988 57.8237C17.0454 57.3971 17.9054 57.1837 18.8787 57.1837C19.8254 57.1837 20.6521 57.3971 21.3588 57.8237C22.0788 58.2371 22.6388 58.8171 23.0388 59.5637C23.4388 60.3104 23.6388 61.1837 23.6388 62.1837V62.9637H16.0587C16.0854 63.8304 16.3721 64.5237 16.9187 65.0437C17.4788 65.5504 18.1721 65.8037 18.9988 65.8037C19.7721 65.8037 20.3521 65.6304 20.7388 65.2837C21.1388 64.9371 21.4454 64.5371 21.6587 64.0837L23.3588 64.9637C23.1721 65.3371 22.8988 65.7304 22.5388 66.1437C22.1921 66.5571 21.7321 66.9037 21.1588 67.1837C20.5854 67.4637 19.8521 67.6037 18.9588 67.6037ZM16.0787 61.3837H21.5388C21.4854 60.6371 21.2188 60.0571 20.7388 59.6437C20.2588 59.2171 19.6321 59.0037 18.8588 59.0037C18.0854 59.0037 17.4521 59.2171 16.9587 59.6437C16.4787 60.0571 16.1854 60.6371 16.0787 61.3837ZM27.3184 67.3237V57.4637H29.3384V58.6237H29.6584C29.8184 58.2104 30.0718 57.9104 30.4184 57.7237C30.7784 57.5237 31.2184 57.4237 31.7384 57.4237H32.9184V59.2837H31.6584C30.9918 59.2837 30.4451 59.4704 30.0184 59.8437C29.5918 60.2037 29.3784 60.7637 29.3784 61.5237V67.3237H27.3184ZM35.4128 67.3237L39.1728 62.3437L35.4928 57.4637H37.9128L40.4928 61.0037H40.8128L43.3928 57.4637H45.8328L42.1328 62.3437L45.8928 67.3237H43.4328L40.8128 63.7037H40.4928L37.8728 67.3237H35.4128ZM49.3083 67.3237V57.4637H51.3683V67.3237H49.3083ZM50.3483 56.1237C49.9483 56.1237 49.6083 55.9971 49.3283 55.7437C49.0616 55.4771 48.9283 55.1371 48.9283 54.7237C48.9283 54.3104 49.0616 53.9771 49.3283 53.7237C49.6083 53.4571 49.9483 53.3237 50.3483 53.3237C50.7616 53.3237 51.1016 53.4571 51.3683 53.7237C51.6349 53.9771 51.7683 54.3104 51.7683 54.7237C51.7683 55.1371 51.6349 55.4771 51.3683 55.7437C51.1016 55.9971 50.7616 56.1237 50.3483 56.1237ZM60.2455 67.6037C59.2588 67.6037 58.3788 67.4037 57.6055 67.0037C56.8455 66.5904 56.2455 66.0037 55.8055 65.2437C55.3655 64.4837 55.1455 63.5837 55.1455 62.5437V62.2437C55.1455 61.2037 55.3655 60.3104 55.8055 59.5637C56.2455 58.8037 56.8455 58.2171 57.6055 57.8037C58.3788 57.3904 59.2588 57.1837 60.2455 57.1837C61.2321 57.1837 62.1121 57.3904 62.8855 57.8037C63.6588 58.2171 64.2655 58.8037 64.7055 59.5637C65.1455 60.3104 65.3655 61.2037 65.3655 62.2437V62.5437C65.3655 63.5837 65.1455 64.4837 64.7055 65.2437C64.2655 66.0037 63.6588 66.5904 62.8855 67.0037C62.1121 67.4037 61.2321 67.6037 60.2455 67.6037ZM60.2455 65.7637C61.1521 65.7637 61.8855 65.4771 62.4455 64.9037C63.0188 64.3171 63.3055 63.5104 63.3055 62.4837V62.3037C63.3055 61.2771 63.0255 60.4771 62.4655 59.9037C61.9055 59.3171 61.1655 59.0237 60.2455 59.0237C59.3521 59.0237 58.6188 59.3171 58.0455 59.9037C57.4855 60.4771 57.2055 61.2771 57.2055 62.3037V62.4837C57.2055 63.5104 57.4855 64.3171 58.0455 64.9037C58.6188 65.4771 59.3521 65.7637 60.2455 65.7637Z" fill="#F5FCFF"/>
</svg>
