<svg width="20" height="20" viewBox="0 0 20 20" fill="none" xmlns="http://www.w3.org/2000/svg">
<path d="M0.0500722 11H5.52707C5.69819 14.1669 6.70762 17.2314 8.45207 19.88C6.26682 19.537 4.25686 18.4794 2.73648 16.8728C1.2161 15.2661 0.27204 13.2008 0.0500722 11ZM0.0490723 9C0.270781 6.79913 1.21561 4.73377 2.7358 3.12691C4.256 1.52004 6.26585 0.462273 8.45107 0.119003C6.70662 2.76761 5.69719 5.83215 5.52607 8.999L0.0490723 9ZM19.9491 9H14.4721C14.3011 5.83281 13.2917 2.7679 11.5471 0.119003C13.7323 0.462025 15.7423 1.51956 17.2627 3.12624C18.783 4.73293 19.7281 6.79816 19.9501 8.999M19.9501 10.999C19.7282 13.1997 18.7832 15.2648 17.2631 16.8715C15.7429 18.4782 13.7331 19.5358 11.5481 19.879C13.2924 17.2307 14.3018 14.1665 14.4731 11L19.9501 10.999ZM7.53007 11H12.4701C12.3055 13.6995 11.4554 16.3124 10.0001 18.592C8.54477 16.3124 7.69467 13.6995 7.53007 11ZM7.53007 9C7.69467 6.30052 8.54477 3.68757 10.0001 1.408C11.4554 3.68757 12.3055 6.30052 12.4701 9H7.53007Z" fill="#00ADEF"/>
</svg>
